<?xml version="1.0" standalone="no"?>
<!DOCTYPE svg PUBLIC "-//W3C//DTD SVG 20010904//EN"
 "http://www.w3.org/TR/2001/REC-SVG-20010904/DTD/svg10.dtd">
<svg version="1.0" xmlns="http://www.w3.org/2000/svg"
 width="3213.000000pt" height="1213.000000pt" viewBox="0 0 3213.000000 1213.000000"
 preserveAspectRatio="xMidYMid meet">

<g transform="translate(0.000000,1213.000000) scale(0.100000,-0.100000)"
fill="#000000" stroke="none">
<path d="M0 6065 l0 -6065 16065 0 16065 0 0 6065 0 6065 -16065 0 -16065 0 0
-6065z m6449 5608 c118 -36 233 -133 285 -239 29 -60 56 -165 56 -221 0 -37
-27 -148 -44 -177 -94 -170 -305 -286 -522 -286 -77 0 -216 21 -251 38 -10 5
-45 22 -78 38 -76 37 -184 142 -215 209 -12 28 -27 60 -33 73 -6 13 -11 67
-11 121 l0 97 46 70 c26 38 62 83 80 100 34 31 151 114 161 114 4 0 30 11 59
24 84 38 173 54 297 55 81 1 130 -4 170 -16z m-1885 -554 c59 -64 69 -156 25
-229 -27 -44 -57 -52 -214 -60 -77 -4 -167 -13 -200 -20 -92 -19 -179 -66
-230 -122 -53 -59 -73 -96 -87 -163 -5 -27 -15 -70 -20 -95 -7 -29 -13 -685
-19 -1810 -5 -1030 -12 -1796 -18 -1840 -5 -41 -14 -113 -19 -160 -6 -47 -16
-114 -23 -150 -19 -101 -56 -271 -67 -310 -34 -122 -43 -151 -62 -200 -12 -30
-25 -67 -30 -81 -20 -65 -130 -275 -195 -374 -170 -256 -401 -467 -660 -600
-38 -20 -77 -40 -85 -45 -8 -4 -26 -12 -40 -18 -69 -29 -98 -41 -130 -52 -19
-7 -48 -18 -65 -25 -86 -34 -324 -95 -372 -95 -51 0 -97 28 -131 80 -28 43
-32 57 -32 119 0 66 2 71 33 97 17 15 48 33 67 41 148 60 317 153 405 223 72
57 215 200 215 215 0 4 12 24 28 44 15 20 32 45 38 56 26 48 53 103 69 140 10
22 24 52 32 67 7 14 13 35 13 45 0 10 5 24 10 29 25 25 83 290 100 454 5 52
14 133 20 180 31 260 35 542 35 2225 0 1742 -1 1756 -39 1869 -42 122 -149
221 -271 248 -100 22 -136 27 -232 27 -119 1 -185 16 -216 49 -19 21 -22 34
-22 110 0 76 3 91 24 119 42 56 47 57 439 47 426 -10 1087 -9 1522 2 173 5
327 7 342 5 16 -2 42 -19 62 -42z m22124 -1245 c12 -8 33 -37 45 -62 50 -105
9 -337 -67 -387 -21 -14 -56 -15 -263 -10 -311 8 -417 12 -535 21 -119 8 -123
1 -48 -77 84 -87 170 -230 225 -369 9 -25 21 -53 27 -63 5 -11 14 -42 19 -70
5 -29 13 -72 19 -97 5 -25 9 -81 9 -125 0 -44 -4 -100 -9 -125 -6 -25 -14 -69
-20 -99 -5 -30 -14 -59 -20 -65 -5 -5 -10 -19 -10 -30 0 -17 -48 -123 -83
-181 -85 -143 -286 -333 -444 -422 -26 -14 -61 -34 -78 -44 -47 -29 -135 -69
-185 -86 -25 -8 -58 -21 -75 -27 -89 -37 -251 -77 -435 -107 -44 -7 -257 -15
-520 -20 -432 -7 -554 -14 -676 -39 -74 -15 -84 -19 -168 -61 -104 -52 -156
-129 -156 -232 0 -163 100 -253 320 -287 159 -25 219 -29 365 -30 88 0 264 -4
390 -9 127 -6 320 -12 430 -15 272 -8 570 -25 628 -36 27 -6 63 -10 80 -10 40
0 211 -26 302 -46 278 -61 446 -126 595 -231 68 -48 171 -151 207 -209 29 -44
83 -167 83 -188 0 -12 6 -28 13 -34 17 -18 23 -353 7 -419 -6 -26 -14 -59 -17
-73 -2 -14 -11 -39 -19 -57 -8 -17 -14 -38 -14 -46 0 -16 -55 -124 -76 -148
-8 -8 -14 -19 -14 -23 0 -4 -6 -13 -12 -20 -7 -8 -20 -24 -28 -36 -82 -122
-300 -294 -505 -398 -157 -80 -406 -167 -595 -207 -41 -9 -91 -20 -111 -25
-20 -6 -50 -10 -66 -10 -17 0 -43 -5 -60 -10 -38 -14 -158 -26 -433 -46 -236
-16 -681 -13 -880 6 -198 19 -281 30 -291 36 -6 3 -36 10 -67 15 -111 16 -267
56 -347 89 -148 61 -190 80 -245 114 -85 52 -175 128 -230 194 -53 62 -109
159 -110 188 0 11 -5 25 -12 32 -18 18 -30 99 -35 246 -3 92 -1 142 6 149 6 6
11 22 11 35 0 13 6 36 14 50 7 15 24 49 37 75 44 90 51 99 123 171 128 127
277 184 481 185 102 1 172 -15 260 -58 68 -34 195 -144 195 -169 0 -9 -28 -43
-62 -77 -120 -117 -156 -170 -182 -273 -54 -213 31 -428 216 -545 74 -47 162
-87 233 -105 22 -6 63 -18 92 -26 28 -9 64 -16 80 -16 15 0 66 -8 113 -16 125
-24 670 -24 825 0 171 26 259 46 375 83 68 22 77 26 180 77 104 51 149 83 225
162 66 68 70 74 103 136 43 80 63 152 73 263 10 100 -3 239 -22 251 -5 3 -9
13 -9 23 0 10 -8 27 -17 39 -10 12 -31 37 -46 57 -31 37 -156 125 -179 125 -8
0 -18 4 -24 9 -16 16 -185 68 -264 81 -41 7 -106 19 -143 26 -38 8 -92 14
-120 14 -29 0 -83 5 -121 10 -38 6 -221 15 -405 20 -517 16 -776 27 -896 40
-157 16 -354 51 -400 71 -11 5 -42 16 -70 25 -166 54 -295 144 -362 253 -53
84 -68 155 -68 313 1 89 5 151 12 160 6 7 14 28 18 47 10 48 52 127 103 194
45 59 198 197 218 197 7 0 32 11 55 25 24 14 50 25 57 25 8 0 28 6 45 14 44
19 116 34 222 46 115 14 135 18 135 30 0 5 -12 13 -27 16 -55 13 -289 124
-340 161 -17 13 -35 23 -38 23 -4 0 -28 14 -53 32 -80 55 -215 198 -263 278
-51 85 -109 212 -109 238 0 9 -6 29 -14 44 -31 60 -42 283 -20 432 9 59 63
215 91 258 12 21 23 42 23 47 0 34 214 276 290 328 14 9 30 22 35 29 29 34
299 181 420 227 65 25 204 65 285 81 260 51 447 63 724 46 115 -7 223 -16 240
-21 17 -5 49 -9 72 -9 36 0 95 -11 269 -51 28 -6 54 -15 60 -20 5 -5 17 -9 26
-9 9 0 37 -9 62 -20 43 -19 50 -20 134 -6 94 16 295 50 353 60 19 4 64 11 100
16 36 5 85 14 110 19 25 6 79 15 120 21 41 7 95 16 119 21 23 5 73 14 110 19
36 6 84 14 106 19 69 15 168 13 193 -5z m-20106 -10 c18 -9 42 -28 53 -42 20
-27 20 -44 22 -1537 2 -1104 5 -1525 14 -1565 26 -124 93 -203 195 -232 33
-10 132 -23 222 -29 187 -15 195 -18 213 -97 17 -70 -1 -132 -50 -173 l-36
-31 -165 9 c-217 11 -1404 10 -1591 -1 l-147 -9 -38 28 c-40 28 -74 85 -74
121 0 38 32 115 54 128 12 8 87 18 186 26 165 12 227 25 278 57 69 44 112 117
125 213 5 36 11 529 14 1095 5 1055 0 1260 -33 1312 -8 12 -14 28 -14 36 0 8
-20 34 -45 59 -64 65 -119 80 -347 98 -69 5 -138 15 -153 22 -56 25 -81 125
-49 194 28 58 83 78 294 105 41 5 82 12 90 15 8 3 44 9 80 14 36 6 97 17 135
26 39 8 90 19 115 24 25 4 70 16 100 25 30 9 74 21 97 25 23 5 50 13 60 18 24
13 86 32 102 32 7 0 27 6 44 14 72 32 203 42 249 20z m2497 0 c66 -33 71 -54
71 -291 0 -131 4 -214 10 -218 9 -5 63 25 80 45 12 14 89 70 95 70 5 0 22 11
39 23 71 54 279 161 416 214 72 28 207 71 270 86 36 8 90 21 120 28 71 17 416
16 531 0 114 -17 288 -58 344 -81 11 -4 43 -16 70 -25 94 -33 326 -154 355
-185 3 -3 32 -25 65 -49 111 -82 168 -136 263 -246 52 -60 97 -117 100 -125 3
-8 17 -31 32 -50 15 -19 30 -42 33 -50 4 -8 16 -28 27 -45 19 -30 72 -136 102
-205 31 -69 98 -284 98 -311 0 -11 7 -45 14 -77 36 -141 44 -463 16 -677 -11
-86 -33 -197 -41 -210 -4 -5 -10 -26 -14 -45 -18 -92 -107 -295 -181 -412 -50
-78 -171 -232 -249 -316 -174 -186 -419 -351 -695 -466 -46 -20 -92 -36 -100
-36 -9 0 -20 -4 -26 -9 -5 -6 -27 -14 -49 -20 -22 -5 -67 -17 -100 -26 -33 -9
-82 -21 -110 -25 -27 -5 -79 -15 -115 -21 -87 -17 -589 -16 -685 1 -135 23
-160 28 -220 45 -99 27 -117 32 -190 59 -73 28 -101 40 -200 87 -107 51 -97
111 -92 -548 3 -318 9 -605 14 -638 13 -82 37 -122 109 -186 56 -50 130 -70
294 -79 155 -9 195 -21 215 -61 41 -78 15 -182 -53 -222 -32 -19 -43 -19 -265
-9 -297 14 -1138 14 -1416 1 -117 -6 -229 -8 -247 -4 -40 7 -68 34 -96 92 -21
44 -19 75 7 140 19 44 85 63 223 63 156 0 257 33 319 105 50 58 69 109 82 218
15 129 16 3734 1 3857 -13 100 -36 154 -91 209 -58 57 -120 74 -341 91 -69 5
-138 15 -153 22 -30 14 -65 82 -65 127 0 37 25 86 57 111 29 23 68 34 168 49
193 28 327 51 420 71 28 6 68 15 90 20 22 4 58 13 80 19 22 6 58 16 80 22 22
6 58 17 80 24 22 7 67 21 100 30 33 10 65 21 70 24 12 7 129 28 171 30 17 0
46 -6 63 -15z m9591 1 c17 -9 39 -33 50 -55 19 -36 20 -59 20 -304 0 -148 4
-267 9 -270 7 -5 109 69 131 94 3 3 50 41 105 84 55 42 108 84 119 93 75 61
278 175 384 215 12 4 32 12 45 17 44 19 164 51 242 66 178 35 535 37 727 6
145 -24 346 -101 459 -176 28 -19 53 -35 55 -35 15 0 208 -188 234 -229 8 -13
21 -29 28 -37 6 -7 12 -15 12 -18 0 -3 14 -25 30 -49 17 -25 30 -51 30 -59 0
-8 4 -18 9 -23 17 -17 70 -179 92 -280 10 -47 15 -295 19 -1110 7 -1140 5
-1115 62 -1198 33 -49 90 -90 153 -110 45 -14 258 -37 346 -37 44 0 70 -27 88
-89 17 -59 0 -118 -47 -167 l-36 -37 -165 9 c-212 12 -1413 11 -1593 0 -159
-10 -185 -4 -229 57 -36 50 -41 133 -9 184 22 37 24 37 225 53 234 19 307 54
369 180 32 65 37 249 34 1227 -4 862 -5 953 -21 1008 -20 70 -58 155 -69 155
-5 0 -8 7 -8 16 0 19 -175 196 -215 217 -109 57 -168 80 -290 116 -16 5 -76
15 -132 21 -155 18 -337 -2 -538 -60 -67 -19 -192 -78 -275 -128 -19 -12 -42
-25 -50 -29 -36 -16 -163 -124 -219 -187 -14 -16 -33 -36 -42 -45 -9 -9 -28
-35 -43 -58 l-26 -43 0 -960 c0 -817 2 -981 16 -1093 18 -150 40 -205 105
-257 59 -47 135 -67 309 -80 85 -6 165 -16 177 -21 12 -4 29 -25 38 -45 32
-77 11 -163 -50 -210 l-36 -27 -147 9 c-189 11 -1389 12 -1592 0 -154 -8 -155
-8 -190 16 -19 13 -46 44 -58 68 -22 42 -23 48 -11 99 22 92 22 92 215 108
250 21 309 43 368 135 26 42 37 74 50 153 15 90 17 207 13 1200 -3 861 -6
1111 -16 1149 -24 90 -74 152 -152 189 -54 25 -105 33 -339 52 -82 7 -107 20
-134 73 -20 39 -20 82 -1 128 31 74 49 81 285 114 36 5 106 16 155 25 50 9
117 21 150 26 33 5 74 14 90 19 17 5 59 16 95 25 36 9 101 28 146 41 44 13 87
24 95 24 8 0 19 4 25 8 22 20 184 58 257 61 21 0 51 -6 67 -14z m-3690 -46
c19 -5 53 -9 75 -9 38 0 171 -22 245 -40 19 -5 58 -14 85 -20 107 -24 121 -28
150 -40 17 -7 39 -16 50 -20 61 -21 210 -102 282 -154 46 -33 110 -89 142
-125 56 -63 141 -191 141 -211 0 -5 6 -24 14 -42 18 -41 40 -119 60 -218 13
-64 15 -217 16 -1088 0 -966 1 -1017 19 -1085 36 -135 74 -209 138 -268 67
-62 209 -109 334 -109 25 0 47 -8 64 -23 22 -19 27 -31 28 -80 1 -52 -2 -60
-30 -89 -35 -34 -68 -49 -188 -80 -107 -28 -423 -31 -495 -5 -25 9 -53 17 -62
17 -17 0 -34 7 -141 54 -32 14 -60 26 -63 26 -10 0 -108 73 -168 125 -49 42
-136 153 -136 172 0 3 -11 29 -24 57 -13 28 -27 69 -31 91 -12 67 -17 66 -75
-15 -106 -150 -323 -316 -510 -389 -19 -8 -48 -20 -65 -26 -73 -30 -210 -69
-375 -105 -169 -38 -569 -37 -713 1 -135 35 -163 43 -171 51 -6 4 -16 8 -23 8
-21 0 -140 60 -218 109 -92 58 -241 210 -299 306 -25 41 -46 78 -46 81 0 3 -6
20 -14 37 -55 124 -72 301 -47 487 17 122 38 184 103 300 76 136 226 269 415
365 110 57 298 128 383 146 19 4 71 16 114 28 44 12 92 21 107 21 15 0 40 5
55 10 28 11 93 22 269 46 106 14 178 21 480 43 77 6 155 13 173 16 18 3 118
10 223 15 126 6 196 13 206 22 13 11 14 62 10 398 -3 212 -10 403 -15 425 -6
22 -16 60 -22 85 -6 25 -15 49 -21 54 -5 6 -9 17 -9 26 0 28 -98 166 -155 218
-52 48 -175 115 -255 140 -105 32 -211 45 -385 46 -192 1 -224 -5 -367 -65
-112 -48 -228 -140 -275 -219 -27 -45 -60 -150 -68 -217 -10 -79 19 -183 70
-252 24 -32 123 -125 161 -152 23 -15 44 -35 47 -42 9 -25 -105 -133 -173
-164 -79 -36 -252 -48 -347 -23 -179 46 -318 177 -388 365 -4 11 -13 46 -20
77 -20 94 -7 311 21 353 8 11 14 25 14 33 0 17 59 108 101 155 68 77 235 186
364 238 41 17 181 61 225 70 202 44 297 58 465 68 144 9 496 3 545 -10z
m14495 1 c205 -32 310 -54 385 -81 92 -32 122 -45 220 -92 138 -66 232 -136
352 -263 52 -56 147 -174 159 -199 5 -11 18 -33 29 -50 11 -16 22 -37 26 -45
3 -8 10 -22 15 -30 5 -8 13 -25 19 -37 5 -13 19 -42 30 -65 12 -24 25 -59 29
-78 5 -19 18 -66 29 -105 53 -187 63 -289 37 -396 -34 -140 -87 -197 -230
-251 -147 -56 -202 -58 -1405 -58 -808 0 -1069 -3 -1078 -12 -14 -14 -7 -253
9 -328 5 -25 14 -74 19 -110 13 -91 50 -236 78 -303 7 -16 12 -32 12 -37 0
-24 106 -228 142 -274 13 -16 25 -35 28 -42 13 -34 164 -185 246 -246 51 -37
95 -68 99 -68 3 0 23 -11 45 -25 22 -14 46 -25 54 -25 8 0 27 -6 43 -14 152
-76 485 -119 743 -97 69 6 141 15 160 20 130 34 175 49 253 82 163 70 330 208
477 394 140 179 130 170 191 168 65 -1 129 -31 164 -78 31 -39 34 -121 8 -163
-91 -146 -356 -404 -528 -513 -126 -80 -294 -162 -404 -198 -100 -33 -227 -67
-286 -76 -22 -4 -62 -11 -90 -15 -98 -17 -398 -23 -555 -11 -158 11 -264 27
-380 56 -36 9 -81 20 -100 24 -86 19 -266 90 -388 154 -148 77 -341 222 -466
352 -40 42 -177 219 -189 245 -4 8 -21 38 -38 65 -42 70 -93 182 -131 290 -42
117 -56 167 -73 250 -8 44 -20 103 -26 130 -6 28 -14 143 -16 258 -6 207 1
286 38 432 6 22 14 60 19 85 14 70 88 264 131 343 6 10 20 37 31 60 12 23 32
56 45 74 12 17 23 34 23 38 0 3 39 58 87 122 104 139 248 287 358 368 44 32
82 62 83 67 2 4 8 8 13 8 5 0 44 22 87 48 73 45 201 112 215 112 4 0 30 11 59
24 29 13 62 26 73 29 11 3 45 13 75 22 149 44 261 64 415 75 132 9 446 3 530
-10z m-14234 -7137 c42 -31 56 -68 45 -126 -19 -99 -177 -126 -242 -42 -44 59
-25 146 40 178 51 25 112 21 157 -10z m11999 12 c97 -50 91 -179 -11 -219
-156 -63 -271 139 -125 220 30 17 102 16 136 -1z m-11382 -3 c10 -7 12 -152
10 -693 l-3 -684 -105 -3 c-90 -2 -107 0 -117 15 -10 13 -13 162 -13 684 0
626 1 669 18 678 20 12 191 14 210 3z m15017 -687 l0 -690 -110 0 -110 0 -3
73 c-2 39 -7 72 -12 72 -4 0 -27 -18 -51 -40 -77 -72 -159 -101 -299 -107
-155 -7 -246 17 -355 93 -129 90 -183 194 -192 364 -8 163 12 245 82 340 106
143 266 209 474 197 135 -8 225 -43 299 -116 22 -22 43 -37 46 -34 3 4 6 124
6 268 0 144 3 265 7 269 4 3 54 5 112 4 l106 -3 0 -690z m-16047 603 c15 -15
16 -132 2 -159 -10 -18 -25 -19 -355 -19 -189 0 -350 -3 -359 -6 -14 -5 -16
-31 -16 -184 0 -136 3 -180 13 -189 9 -7 116 -12 328 -13 l314 -3 3 -87 3 -88
-311 0 c-196 0 -319 -4 -331 -10 -18 -10 -19 -24 -19 -270 l0 -260 -22 -5
c-13 -3 -66 -5 -118 -3 l-95 3 -3 644 c-2 509 0 646 10 653 22 13 942 10 956
-4z m2067 -323 c119 -39 177 -82 239 -180 47 -72 66 -145 68 -262 2 -56 0
-104 -3 -108 -4 -3 -182 -6 -396 -5 -215 0 -398 -2 -407 -6 -21 -8 -20 -16 3
-68 23 -50 95 -122 145 -147 62 -30 166 -42 248 -29 68 10 198 63 198 81 0 4
9 10 20 14 15 5 34 -6 75 -41 30 -26 55 -54 55 -61 0 -31 -165 -123 -259 -145
-112 -25 -336 -19 -406 12 -11 5 -38 17 -60 26 -100 45 -201 146 -243 244 -11
25 -25 78 -32 118 -12 63 -11 86 2 161 35 196 125 299 343 393 71 30 322 32
410 3z m1110 -3 c90 -25 155 -58 155 -78 0 -9 -13 -36 -30 -61 -16 -24 -30
-48 -30 -53 0 -21 -24 -18 -116 16 -89 32 -110 36 -202 37 -88 0 -107 -3 -130
-20 -93 -68 -41 -156 118 -201 19 -6 62 -18 95 -27 158 -45 265 -108 301 -178
43 -86 22 -225 -45 -290 -83 -82 -234 -125 -398 -114 -151 11 -184 19 -298 73
-82 40 -98 56 -85 84 12 27 25 50 54 93 l19 27 31 -23 c101 -75 302 -116 421
-86 58 15 86 45 88 99 1 38 -3 46 -37 76 -21 18 -63 40 -94 49 -32 9 -75 23
-97 30 -22 7 -60 18 -85 25 -66 20 -161 67 -194 98 -78 73 -88 217 -22 314 40
60 147 116 251 132 68 10 261 -3 330 -22z m1603 -68 l3 -92 -63 -7 c-134 -15
-230 -71 -283 -166 l-30 -54 -5 -290 -5 -290 -107 -3 c-98 -2 -108 -1 -118 17
-7 14 -9 173 -8 493 l3 473 115 0 115 0 3 -77 c2 -43 7 -78 12 -78 5 0 30 22
54 48 69 74 184 123 276 119 l35 -2 3 -91z m792 85 c36 -5 69 -14 75 -20 5 -5
17 -9 27 -9 22 0 116 -58 148 -92 31 -32 90 -124 90 -140 0 -7 6 -25 14 -39
16 -31 30 -238 18 -257 -7 -10 -91 -13 -403 -12 -217 0 -400 -4 -407 -8 -38
-25 48 -154 136 -203 129 -71 319 -57 449 33 26 17 51 27 61 24 10 -3 39 -28
66 -55 l48 -48 -39 -32 c-32 -27 -107 -67 -188 -101 -68 -29 -275 -37 -380
-15 -256 53 -421 253 -410 498 6 136 47 237 130 322 129 132 342 190 565 154z
m1227 0 c43 -6 82 -15 88 -20 5 -5 16 -9 25 -9 29 0 129 -60 185 -111 94 -87
134 -177 142 -324 8 -134 -34 -263 -113 -347 -111 -117 -268 -178 -459 -177
-181 0 -324 53 -434 159 -33 33 -61 67 -61 75 0 8 -4 15 -8 15 -11 0 -38 64
-56 136 -63 247 77 493 329 580 95 32 232 41 362 23z m1317 -5 c9 -23 7 -147
-2 -161 -4 -7 -35 -15 -67 -19 -137 -14 -229 -71 -287 -177 -22 -40 -23 -52
-26 -322 -2 -173 -8 -285 -14 -292 -14 -18 -188 -18 -211 0 -16 11 -17 50 -15
492 l3 480 115 0 115 0 3 -65 c2 -36 7 -69 12 -74 5 -5 29 11 55 37 75 71 173
112 281 116 21 1 34 -5 38 -15z m702 5 c73 -13 148 -50 198 -95 20 -19 41 -34
46 -34 5 0 10 28 12 63 l3 62 115 0 115 0 0 -470 c0 -496 -1 -513 -48 -615
-11 -25 -48 -72 -82 -105 -100 -99 -215 -143 -396 -152 -160 -8 -262 11 -401
76 -107 49 -106 47 -58 119 48 71 57 74 132 36 139 -71 297 -85 425 -40 90 33
162 107 181 188 14 64 16 168 2 168 -5 0 -24 -13 -42 -29 -132 -114 -337 -141
-528 -70 -103 39 -220 163 -263 279 -24 64 -24 264 -1 317 37 85 51 108 94
156 115 129 297 183 496 146z m1400 1 c32 -6 70 -16 84 -22 111 -49 155 -89
199 -182 l31 -67 -2 -357 -3 -357 -110 0 -110 0 -3 45 c-4 61 -15 68 -53 36
-35 -30 -85 -54 -144 -69 -64 -16 -234 -20 -295 -7 -288 63 -363 397 -118 529
86 46 122 52 366 58 179 5 235 9 239 19 8 23 -25 118 -52 147 -50 53 -93 67
-212 67 -113 0 -155 -10 -248 -55 -27 -13 -58 -25 -67 -27 -18 -3 -110 110
-101 125 7 11 140 73 201 93 89 31 291 42 398 24z m1386 1 c75 -13 162 -56
201 -102 51 -59 67 -82 67 -99 0 -9 6 -22 13 -28 9 -10 12 -101 12 -385 l0
-372 -111 -3 -112 -3 -4 323 -3 323 -35 52 c-23 35 -51 61 -85 80 -46 26 -58
28 -145 26 -62 -1 -108 -7 -133 -17 -59 -26 -115 -84 -148 -152 l-29 -63 0
-269 c0 -200 -3 -273 -13 -285 -10 -15 -27 -17 -117 -15 l-105 3 0 490 0 490
109 3 c81 2 112 -1 118 -10 4 -7 7 -41 7 -76 -1 -34 1 -65 4 -69 4 -3 19 9 34
27 91 108 285 162 475 131z m1758 -19 c74 -22 160 -61 160 -72 0 -14 -52 -105
-70 -124 -19 -19 -20 -19 -62 1 -82 39 -151 54 -248 56 -129 1 -170 -22 -170
-97 0 -62 29 -84 165 -127 33 -10 70 -19 82 -19 12 0 25 -4 28 -10 3 -5 15
-10 25 -10 18 0 50 -12 130 -49 81 -38 150 -140 150 -224 0 -48 -32 -135 -59
-166 -78 -84 -177 -122 -340 -129 -145 -6 -251 16 -378 78 -88 42 -92 50 -57
116 36 70 55 81 92 57 80 -55 248 -99 349 -91 76 6 126 30 149 74 19 34 18 35
-1 72 -15 28 -36 45 -85 69 -36 18 -74 33 -85 33 -10 0 -37 6 -60 14 -22 8
-60 20 -85 27 -108 32 -196 93 -231 160 -25 49 -26 161 -3 210 43 88 114 134
269 173 48 12 271 -3 335 -22z m1090 0 c78 -25 116 -47 173 -101 66 -62 111
-154 127 -264 12 -76 10 -170 -3 -183 -2 -3 -185 -5 -406 -4 -453 0 -432 5
-391 -76 26 -53 85 -112 141 -142 120 -64 323 -45 438 42 19 14 40 26 46 26
17 0 115 -90 115 -106 0 -25 -99 -88 -205 -129 -75 -29 -276 -43 -370 -25
-176 33 -313 131 -385 275 -35 70 -35 70 -35 210 0 145 0 146 53 254 39 80
166 177 287 220 96 34 315 36 415 3z m-14002 -460 c1 -320 -1 -479 -8 -493
-10 -18 -20 -19 -118 -17 l-107 3 -3 480 c-1 264 0 486 3 493 3 9 33 12 117
10 l113 -3 3 -473z m12010 -6 c1 -345 -1 -483 -9 -492 -15 -18 -199 -20 -217
-2 -9 9 -12 131 -12 488 0 262 3 480 7 484 4 3 57 5 117 4 l111 -3 3 -479z"/>
<path d="M24210 9584 c-41 -8 -84 -18 -95 -23 -11 -5 -40 -16 -65 -26 -25 -9
-58 -24 -73 -32 -15 -8 -38 -20 -50 -26 -31 -16 -89 -57 -108 -76 -9 -9 -33
-31 -53 -49 -43 -38 -134 -161 -157 -212 -75 -161 -93 -255 -92 -480 0 -242
25 -366 108 -535 16 -33 32 -62 35 -65 3 -3 17 -21 30 -40 110 -160 294 -281
510 -336 75 -18 378 -22 433 -5 17 6 59 18 92 27 214 61 425 245 508 444 10
25 23 53 28 62 53 102 88 507 55 635 -9 34 -16 75 -16 91 0 17 -4 34 -10 37
-5 3 -10 13 -10 22 0 15 -10 40 -52 133 -24 53 -108 167 -168 228 -41 43 -159
125 -215 151 -17 7 -39 18 -50 24 -21 11 -42 17 -170 47 -97 24 -302 25 -415
4z"/>
<path d="M9860 9428 c-154 -33 -241 -65 -348 -130 -34 -21 -65 -38 -68 -38 -9
0 -116 -81 -201 -153 l-83 -69 0 -1055 c0 -1176 -7 -1064 73 -1173 98 -135
275 -281 427 -352 159 -74 260 -93 505 -93 212 0 263 7 390 52 171 62 337 189
467 360 25 32 48 65 51 73 4 8 21 38 37 65 50 84 110 215 110 239 0 8 4 17 9
20 5 3 11 16 14 28 2 13 16 66 29 118 42 158 74 369 84 544 5 91 -3 211 -26
396 -12 95 -59 291 -79 328 -6 11 -11 28 -11 37 0 9 -20 59 -45 111 -25 51
-45 97 -45 101 0 3 -11 21 -25 39 -14 18 -25 35 -25 39 0 3 -23 36 -51 73
-183 243 -381 373 -649 430 -88 18 -468 26 -540 10z"/>
<path d="M15370 7969 c-36 -4 -123 -13 -195 -19 -174 -16 -286 -32 -485 -69
-95 -18 -239 -55 -275 -71 -11 -4 -45 -17 -75 -27 -30 -10 -89 -35 -130 -56
-273 -141 -409 -362 -410 -665 0 -245 75 -396 239 -480 96 -49 175 -64 342
-63 142 0 190 6 324 42 57 16 183 69 227 96 21 13 40 23 43 23 16 0 162 118
223 180 50 51 139 178 172 245 44 92 47 98 71 180 19 62 22 104 26 367 4 230
3 301 -7 313 -7 8 -15 14 -19 14 -3 -1 -35 -5 -71 -10z"/>
<path d="M28990 9554 c-51 -4 -149 -30 -197 -50 -17 -8 -34 -14 -38 -14 -15 0
-124 -58 -175 -93 -75 -51 -210 -186 -257 -255 -21 -31 -40 -59 -43 -62 -10
-9 -97 -194 -113 -240 -33 -93 -70 -268 -77 -360 -3 -52 -5 -98 -3 -102 2 -5
349 -8 771 -8 712 0 772 2 837 19 163 42 233 101 269 221 38 128 -3 369 -91
535 -111 208 -250 325 -460 386 -68 19 -311 33 -423 23z"/>
<path d="M30194 2122 c-90 -30 -152 -88 -196 -185 -24 -51 -25 -223 -3 -253 8
-10 15 -26 15 -34 0 -29 79 -107 136 -136 53 -27 66 -29 163 -29 88 0 114 4
152 22 91 43 140 101 172 202 40 125 4 256 -96 355 -11 10 -49 32 -86 47 -78
34 -174 37 -257 11z"/>
<path d="M16630 2140 c-126 -16 -250 -129 -250 -227 l0 -33 308 2 307 3 -1 33
c-4 77 -73 166 -158 202 -46 20 -139 29 -206 20z"/>
<path d="M20200 2140 c-89 -11 -143 -44 -206 -125 -33 -43 -59 -114 -46 -127
5 -5 145 -7 313 -6 l304 3 -2 39 c-2 22 -7 44 -13 50 -5 5 -10 18 -10 27 0 23
-79 93 -131 116 -52 23 -132 32 -209 23z"/>
<path d="M21384 2121 c-127 -41 -192 -118 -215 -255 -10 -61 -10 -85 1 -133
26 -112 62 -160 163 -218 49 -27 58 -29 162 -29 111 1 120 3 207 50 30 16 75
70 104 124 27 51 27 239 0 290 -10 19 -22 42 -26 50 -4 8 -33 36 -64 61 -92
75 -217 98 -332 60z"/>
<path d="M23424 2109 c-115 -60 -157 -135 -157 -279 0 -79 4 -102 22 -137 27
-51 84 -108 131 -133 67 -34 185 -50 232 -31 13 5 35 12 50 15 36 8 123 79
151 124 40 64 52 140 37 225 -20 107 -66 170 -163 221 -42 23 -60 26 -147 26
-90 0 -103 -2 -156 -31z"/>
<path d="M24760 1751 c-111 -10 -160 -53 -160 -140 0 -38 5 -49 39 -81 85 -81
252 -80 398 4 49 28 93 107 93 166 0 34 -4 42 -26 50 -27 11 -234 11 -344 1z"/>
<path d="M28931 2121 c-84 -34 -171 -141 -171 -211 l0 -30 305 0 c237 0 305 3
306 13 8 93 -55 184 -158 228 -61 26 -218 26 -282 0z"/>
</g>
</svg>
