<?xml version="1.0" standalone="no"?>
<!DOCTYPE svg PUBLIC "-//W3C//DTD SVG 20010904//EN"
 "http://www.w3.org/TR/2001/REC-SVG-20010904/DTD/svg10.dtd">
<svg version="1.0" xmlns="http://www.w3.org/2000/svg"
 width="3213.000000pt" height="1213.000000pt" viewBox="0 0 3213.000000 1213.000000"
 preserveAspectRatio="xMidYMid meet">

<g transform="translate(0.000000,1213.000000) scale(0.100000,-0.100000)"
fill="#000000" stroke="none">
<path d="M4740 12054 c-98 -19 -131 -29 -182 -55 -10 -5 -22 -9 -28 -9 -15 0
-180 -112 -215 -147 -84 -82 -135 -191 -135 -289 0 -57 47 -214 73 -244 9 -11
17 -23 17 -26 0 -3 7 -12 15 -20 8 -8 18 -21 22 -27 17 -27 126 -107 181 -132
132 -62 161 -68 317 -68 97 0 157 5 195 16 30 9 66 19 80 23 32 9 114 54 153
84 44 33 117 107 117 118 0 7 5 12 10 12 6 0 10 6 10 13 0 6 9 23 20 37 11 14
20 35 20 47 0 12 5 25 10 28 6 4 10 58 10 130 0 72 -4 126 -10 130 -5 3 -10
15 -10 26 0 47 -64 154 -131 220 -63 61 -82 74 -171 113 -81 35 -247 44 -368
20z"/>
<path d="M465 11471 c-3 -6 -13 -11 -22 -11 -21 0 -73 -58 -73 -81 0 -10 -4
-21 -10 -24 -19 -12 -11 -117 13 -165 29 -55 42 -59 242 -71 175 -9 231 -16
265 -31 43 -19 64 -27 86 -33 12 -3 31 -14 42 -23 11 -10 33 -27 47 -38 27
-19 90 -107 112 -154 22 -48 36 -95 46 -155 6 -38 12 -722 14 -1860 5 -1762
-1 -2213 -28 -2485 -5 -52 -12 -133 -15 -180 -3 -47 -8 -92 -11 -100 -5 -14
-14 -82 -29 -223 -4 -31 -10 -60 -15 -63 -5 -3 -9 -23 -9 -44 0 -21 -5 -42
-10 -45 -5 -3 -10 -18 -10 -32 0 -15 -4 -40 -10 -57 -29 -92 -54 -164 -65
-191 -71 -168 -94 -212 -163 -313 -151 -222 -380 -396 -685 -522 -91 -38 -119
-61 -133 -110 -20 -68 25 -198 79 -231 55 -33 102 -32 252 7 77 20 151 38 165
41 14 3 30 9 35 13 6 3 30 12 55 20 25 7 49 17 55 22 5 4 16 8 26 8 19 0 141
58 306 145 64 35 197 122 241 159 120 101 217 196 285 280 18 21 37 43 43 50
19 21 160 231 174 261 8 17 17 32 20 35 12 12 59 103 85 165 9 22 25 57 36 78
10 22 19 47 19 56 0 9 4 21 8 26 5 6 14 30 21 55 7 25 19 61 27 80 24 60 58
198 70 280 3 19 9 44 14 55 5 11 11 38 15 60 18 121 24 168 34 243 5 46 12 96
16 110 24 111 29 421 35 2207 5 1296 11 1921 18 1965 6 36 14 83 17 105 12 79
50 148 118 217 56 55 146 108 185 108 10 0 22 4 28 9 15 14 89 23 249 28 83 2
154 8 159 14 6 5 19 9 31 9 13 0 28 12 39 31 23 39 34 160 17 195 -6 13 -16
35 -22 49 -7 13 -32 34 -57 45 -40 19 -56 21 -146 16 -347 -21 -1688 -20
-2193 0 -87 3 -133 2 -138 -5z"/>
<path d="M27320 10040 c-19 -5 -66 -13 -105 -20 -148 -24 -432 -71 -485 -81
-30 -6 -82 -15 -115 -20 -130 -21 -257 -43 -345 -59 -223 -41 -249 -44 -276
-31 -41 19 -68 29 -104 40 -19 6 -57 18 -85 27 -82 27 -171 43 -385 70 -174
22 -698 25 -840 6 -105 -15 -281 -48 -320 -61 -14 -5 -45 -14 -70 -21 -25 -7
-54 -16 -65 -20 -11 -5 -38 -14 -60 -21 -22 -7 -44 -17 -50 -21 -5 -4 -17 -8
-27 -8 -10 0 -18 -3 -18 -8 0 -4 -15 -13 -32 -21 -353 -146 -641 -422 -769
-738 -5 -13 -13 -33 -18 -45 -10 -24 -15 -46 -33 -138 -15 -79 -15 -363 0
-430 7 -30 16 -70 19 -88 3 -18 9 -35 14 -38 5 -3 9 -14 9 -25 0 -10 4 -27 9
-37 5 -9 26 -53 47 -97 22 -44 42 -81 47 -83 4 -2 7 -8 7 -14 0 -15 53 -88
114 -154 50 -56 233 -204 251 -204 4 0 21 -10 38 -22 28 -20 241 -128 253
-128 2 0 23 -9 47 -19 23 -11 66 -27 95 -37 90 -28 69 -41 -85 -49 -60 -3
-124 -10 -143 -15 -19 -5 -62 -14 -95 -20 -33 -7 -70 -16 -82 -21 -61 -24 -83
-34 -138 -61 -139 -70 -251 -182 -339 -341 -14 -26 -26 -54 -26 -62 0 -8 -4
-15 -10 -15 -5 0 -10 -14 -10 -30 0 -17 -4 -38 -9 -48 -19 -35 -34 -206 -22
-248 6 -21 11 -57 11 -79 0 -39 19 -107 33 -121 4 -4 7 -18 7 -31 0 -13 3 -23
8 -23 4 0 14 -15 21 -32 30 -69 168 -180 281 -227 19 -8 50 -23 68 -33 18 -10
39 -18 47 -18 9 0 23 -4 33 -9 9 -5 37 -15 62 -21 25 -7 56 -16 70 -20 14 -4
57 -13 95 -19 228 -34 393 -46 825 -61 543 -19 823 -31 920 -40 88 -8 125 -13
310 -41 36 -5 82 -12 103 -15 20 -4 40 -10 43 -15 3 -5 15 -9 27 -9 24 0 93
-22 103 -33 4 -4 13 -7 21 -7 17 0 107 -42 111 -52 2 -4 12 -8 23 -8 10 0 19
-4 19 -9 0 -5 13 -15 28 -22 59 -29 127 -102 169 -184 44 -84 48 -106 48 -256
-1 -136 -10 -201 -36 -251 -5 -10 -9 -24 -9 -33 0 -41 -107 -201 -181 -271
-104 -97 -251 -183 -384 -225 -22 -7 -44 -17 -49 -21 -6 -4 -20 -8 -33 -8 -13
0 -31 -4 -41 -9 -30 -15 -88 -31 -113 -31 -14 0 -29 -4 -35 -9 -5 -5 -31 -12
-59 -15 -27 -4 -84 -11 -125 -16 -85 -11 -383 -30 -480 -30 -94 -1 -395 19
-465 30 -33 5 -84 12 -113 16 -29 3 -55 11 -58 15 -3 5 -20 9 -39 9 -19 0 -37
5 -40 10 -3 6 -19 10 -35 10 -16 0 -32 4 -35 10 -3 6 -13 10 -21 10 -21 0
-180 73 -194 89 -3 3 -17 13 -31 21 -64 37 -164 149 -195 218 -45 103 -48 117
-47 257 0 123 9 191 24 201 5 3 9 12 9 21 0 13 31 60 90 138 8 10 45 48 83 84
92 88 91 94 -19 191 -45 40 -116 85 -154 99 -19 7 -44 17 -55 21 -73 28 -199
36 -304 19 -141 -23 -205 -46 -301 -110 -55 -36 -180 -155 -180 -171 0 -5 -8
-17 -17 -28 -10 -10 -31 -45 -46 -77 -16 -32 -33 -66 -38 -75 -5 -10 -9 -27
-9 -37 0 -11 -4 -22 -9 -25 -30 -19 -30 -413 0 -432 5 -3 9 -16 9 -29 0 -13 5
-27 10 -30 6 -3 10 -13 10 -22 0 -18 63 -146 80 -163 3 -3 18 -22 33 -42 34
-45 146 -158 157 -158 5 0 15 -6 22 -13 51 -51 268 -158 398 -196 25 -7 54
-17 65 -21 50 -18 93 -30 113 -30 11 0 23 -4 26 -9 3 -4 27 -11 53 -15 27 -3
73 -10 103 -16 356 -65 884 -90 1315 -60 94 6 204 13 245 16 41 3 84 9 95 14
11 5 49 11 85 14 63 5 120 14 225 37 28 6 67 13 88 16 20 3 40 9 43 14 3 5 23
9 44 9 21 0 41 4 44 9 3 5 18 11 33 14 69 14 115 28 218 65 61 22 124 45 140
52 70 29 243 116 282 142 23 15 45 28 49 28 10 0 182 133 241 187 64 59 183
202 183 220 0 7 3 13 8 13 4 0 12 10 18 23 6 12 27 53 47 90 20 38 37 79 37
92 0 13 5 27 10 30 6 3 10 17 10 30 0 13 4 26 9 29 19 12 39 281 29 404 -8
115 -19 181 -29 188 -5 3 -9 14 -9 25 0 10 -4 27 -9 37 -5 9 -19 40 -32 67
-55 116 -198 274 -302 334 -132 76 -160 91 -166 91 -4 0 -26 9 -49 20 -22 11
-48 20 -56 20 -8 0 -18 5 -21 10 -3 6 -17 10 -30 10 -13 0 -27 5 -30 10 -3 6
-19 10 -35 10 -16 0 -31 4 -34 9 -3 5 -20 11 -38 14 -18 3 -53 10 -78 16 -88
21 -146 33 -190 37 -25 3 -54 9 -65 14 -11 5 -45 11 -75 14 -30 3 -98 9 -150
15 -152 17 -364 30 -665 41 -154 5 -329 12 -390 15 -60 3 -200 7 -310 10 -574
16 -724 32 -853 90 -68 30 -152 111 -152 146 0 10 -4 19 -10 19 -17 0 -12 192
6 235 33 79 156 169 274 200 14 3 41 11 60 16 122 34 335 49 850 59 419 7 492
12 635 40 28 5 66 12 85 15 19 4 44 10 55 15 11 4 40 13 65 20 25 7 54 16 65
20 11 5 38 14 60 21 22 7 44 17 50 21 5 4 15 8 22 8 22 0 198 86 292 142 124
75 192 129 307 243 109 109 179 205 238 330 49 104 53 114 61 150 3 17 11 50
17 75 13 52 16 396 4 455 -4 22 -11 49 -15 60 -5 11 -14 38 -20 60 -49 160
-204 415 -313 516 -10 9 -18 26 -18 38 0 22 1 22 113 16 61 -3 236 -10 387
-15 151 -5 322 -12 380 -15 78 -4 109 -3 121 7 23 19 69 113 69 142 0 14 5 28
10 31 14 9 13 220 -2 248 -6 12 -14 29 -18 37 -12 26 -72 60 -104 59 -17 -1
-47 -5 -66 -9z m-2228 -309 c31 -1 67 -5 80 -10 13 -5 48 -14 78 -21 30 -7 90
-28 132 -46 252 -108 444 -324 533 -599 41 -128 55 -226 55 -399 0 -180 -22
-342 -59 -431 -5 -11 -15 -40 -22 -65 -16 -54 -79 -178 -111 -221 -62 -80
-213 -221 -278 -258 -191 -109 -359 -147 -605 -138 -77 3 -153 10 -170 15 -16
5 -50 15 -75 22 -79 21 -236 95 -260 120 -3 3 -21 17 -40 30 -40 28 -103 83
-136 120 -55 61 -105 127 -117 153 -6 15 -15 27 -19 27 -5 0 -8 6 -8 13 0 6
-9 30 -19 52 -87 179 -104 271 -105 575 -1 267 6 317 56 445 30 77 87 190 106
211 9 11 29 35 44 54 93 124 250 237 408 295 91 34 137 43 260 55 52 6 102 11
110 13 8 1 35 -1 60 -5 25 -4 71 -7 102 -7z"/>
<path d="M5055 10018 c-27 -5 -124 -32 -215 -60 -91 -28 -181 -54 -200 -59
-19 -4 -53 -13 -75 -19 -75 -21 -120 -32 -160 -37 -22 -3 -44 -9 -49 -14 -6
-5 -29 -9 -52 -9 -24 0 -46 -4 -49 -10 -3 -5 -30 -10 -59 -10 -28 0 -56 -4
-61 -9 -6 -5 -32 -12 -60 -15 -27 -3 -79 -10 -115 -15 -36 -6 -83 -13 -105
-16 -54 -8 -85 -24 -117 -60 -23 -25 -28 -39 -28 -88 0 -66 21 -125 47 -133
10 -3 27 -10 38 -14 11 -5 65 -11 120 -14 201 -12 283 -25 310 -48 5 -4 17 -8
26 -8 23 0 109 -88 130 -132 34 -69 38 -85 45 -168 10 -111 10 -2419 0 -2530
-4 -47 -11 -94 -15 -105 -5 -11 -16 -39 -26 -62 -22 -53 -88 -120 -141 -144
-68 -31 -179 -49 -302 -50 -145 0 -180 -11 -209 -64 -33 -61 -30 -126 8 -181
17 -25 43 -50 57 -55 19 -7 139 -7 387 2 256 8 526 10 935 4 886 -13 814 -14
844 14 14 14 26 30 26 38 0 7 5 13 10 13 14 0 12 141 -2 173 -20 41 -76 57
-205 57 -244 0 -390 62 -449 190 -53 114 -55 178 -57 1960 -2 1776 3 1642 -64
1674 -37 18 -91 19 -168 4z"/>
<path d="M7780 10009 c-41 -11 -124 -35 -185 -54 -60 -19 -144 -44 -185 -55
-41 -12 -89 -25 -106 -31 -17 -5 -42 -9 -57 -9 -14 0 -29 -4 -32 -10 -3 -5
-24 -10 -45 -10 -21 0 -41 -4 -44 -9 -3 -4 -27 -11 -53 -15 -27 -3 -75 -11
-108 -16 -77 -14 -152 -26 -240 -39 -125 -19 -140 -22 -172 -37 -50 -22 -73
-63 -73 -127 0 -74 22 -122 62 -141 18 -8 80 -17 138 -20 201 -13 238 -18 325
-49 60 -21 155 -122 155 -164 0 -13 4 -23 9 -23 4 0 12 -26 17 -57 11 -74 11
-4334 0 -4431 -5 -40 -13 -75 -17 -78 -5 -3 -9 -14 -9 -25 0 -25 -47 -94 -88
-131 -34 -30 -107 -68 -132 -68 -9 0 -20 -4 -26 -9 -9 -9 -74 -16 -264 -27
-60 -4 -113 -12 -124 -20 -36 -25 -64 -162 -36 -179 6 -3 10 -14 10 -24 0 -9
15 -32 34 -50 l35 -34 193 8 c248 11 1494 11 1749 0 l195 -8 39 47 c36 44 38
50 38 116 0 60 -4 74 -27 105 -26 34 -29 35 -99 36 -69 0 -258 20 -322 34 -58
13 -117 50 -171 108 -30 32 -54 65 -54 73 0 8 -4 22 -9 32 -27 52 -31 162 -31
790 0 566 2 653 15 658 8 3 52 -12 98 -34 152 -74 356 -149 487 -179 185 -43
521 -66 740 -52 85 6 169 14 186 20 17 5 45 9 62 9 33 0 71 8 207 42 197 51
389 129 560 228 22 13 52 29 66 37 15 7 32 20 39 28 7 8 17 15 22 15 9 0 174
124 233 175 134 117 278 281 365 415 30 47 57 87 60 90 3 3 16 28 30 55 14 28
28 52 33 53 4 2 7 10 7 18 0 7 8 28 18 46 10 18 27 56 37 83 10 28 22 54 27
59 4 6 8 20 8 32 0 13 5 26 10 29 6 3 10 17 10 30 0 13 4 26 9 29 5 3 11 23
14 43 3 21 10 58 17 83 16 65 27 155 41 321 17 191 -2 481 -41 664 -6 28 -14
67 -17 88 -3 20 -9 40 -14 43 -5 3 -9 15 -9 26 0 23 -17 81 -31 110 -5 10 -9
22 -9 27 0 22 -141 315 -177 368 -13 19 -23 38 -23 43 0 6 -4 10 -10 10 -5 0
-10 7 -10 15 0 8 -4 15 -10 15 -5 0 -10 6 -10 14 0 8 -3 16 -8 18 -4 2 -21 21
-37 44 -30 41 -122 149 -161 188 -75 77 -281 246 -300 246 -3 0 -31 17 -62 38
-50 33 -191 106 -262 135 -97 39 -105 42 -185 65 -232 68 -401 87 -681 79
-170 -5 -238 -15 -404 -57 -19 -5 -47 -12 -63 -16 -15 -3 -30 -10 -33 -15 -3
-5 -14 -9 -25 -9 -10 0 -41 -9 -67 -21 -50 -22 -85 -37 -117 -49 -27 -11 -202
-97 -240 -118 -87 -50 -200 -124 -280 -184 -136 -104 -129 -113 -135 187 -4
138 -10 260 -14 272 -11 31 -83 63 -137 62 -24 0 -78 -9 -119 -20z m1630 -464
c25 -4 49 -11 55 -16 5 -5 24 -9 41 -9 18 0 36 -4 39 -10 3 -5 15 -10 26 -10
10 0 27 -4 37 -9 9 -5 28 -13 42 -19 89 -35 196 -97 269 -156 32 -25 200 -194
224 -224 9 -12 17 -26 17 -31 0 -5 4 -11 9 -13 13 -5 107 -152 134 -211 52
-111 72 -161 104 -262 8 -27 19 -59 23 -70 10 -23 19 -66 26 -115 3 -19 9 -44
14 -55 5 -11 11 -45 14 -75 3 -30 11 -104 17 -165 25 -245 -2 -637 -61 -875
-6 -25 -15 -61 -19 -80 -8 -32 -41 -131 -62 -187 -5 -13 -13 -33 -18 -45 -4
-13 -18 -43 -30 -66 -11 -24 -21 -48 -21 -52 0 -17 -132 -230 -142 -230 -5 0
-8 -7 -8 -15 0 -8 -51 -66 -112 -128 -106 -106 -201 -178 -293 -224 -90 -45
-196 -83 -233 -83 -11 0 -23 -4 -26 -9 -8 -12 -150 -24 -286 -25 -120 -1 -229
8 -292 24 -21 6 -57 15 -80 21 -75 18 -112 31 -173 57 -162 70 -370 236 -479
382 -22 30 -43 57 -46 60 -3 3 -15 25 -27 48 l-23 44 0 1197 0 1198 33 29 c57
51 181 150 204 162 12 7 27 18 35 25 27 26 192 122 248 144 44 18 84 35 102
44 10 5 31 9 47 9 17 0 33 5 36 10 3 6 25 10 48 11 23 0 51 4 62 9 22 10 455
6 525 -5z"/>
<path d="M18405 10015 c-34 -7 -103 -27 -155 -44 -102 -33 -130 -42 -200 -61
-25 -7 -55 -16 -68 -21 -13 -5 -34 -9 -47 -9 -13 0 -27 -4 -30 -10 -3 -5 -24
-10 -45 -10 -21 0 -41 -4 -44 -9 -3 -5 -23 -11 -43 -14 -21 -3 -63 -11 -93
-16 -116 -23 -221 -40 -465 -77 -47 -8 -114 -52 -115 -76 0 -9 -4 -20 -10 -23
-23 -14 -4 -140 25 -170 17 -18 87 -34 175 -39 165 -11 225 -17 245 -25 11 -5
40 -15 65 -22 56 -17 127 -85 160 -154 47 -100 49 -153 50 -1420 0 -758 -4
-1211 -10 -1265 -33 -266 -159 -360 -482 -360 -125 0 -192 -15 -206 -44 -17
-37 -32 -92 -32 -114 0 -35 38 -105 71 -131 l31 -24 331 12 c422 14 1040 14
1454 0 l323 -12 33 23 c45 31 61 71 59 152 -2 117 -34 138 -218 138 -122 0
-226 17 -295 47 -90 40 -162 127 -183 222 -6 29 -11 493 -13 1251 l-3 1205 50
67 c68 89 204 216 306 283 105 69 313 175 344 175 6 0 18 4 28 9 30 15 88 31
113 31 14 0 29 4 34 9 16 15 131 24 310 24 172 0 271 -8 281 -24 3 -5 15 -9
27 -9 24 0 93 -22 103 -33 4 -4 13 -7 21 -7 14 0 104 -40 113 -49 6 -7 43 -29
81 -48 35 -17 172 -154 207 -206 65 -98 106 -208 123 -333 15 -117 7 -2273
-10 -2333 -55 -200 -191 -281 -475 -281 -128 0 -196 -18 -213 -57 -7 -15 -13
-55 -13 -90 0 -51 5 -71 26 -102 42 -64 47 -65 387 -52 387 14 1064 14 1467 0
359 -13 358 -13 398 61 27 52 29 140 3 185 -24 40 -72 53 -203 54 -184 2 -327
40 -386 106 -41 44 -77 104 -86 140 -23 90 -28 296 -35 1335 -4 624 -11 1151
-15 1170 -3 19 -11 60 -17 90 -6 30 -15 64 -19 75 -4 11 -14 36 -20 55 -21 58
-82 182 -112 227 -15 23 -28 46 -28 52 0 6 -4 11 -8 11 -4 0 -15 12 -25 28
-18 30 -88 104 -162 173 -89 81 -232 167 -385 232 -39 16 -98 34 -225 66 -173
44 -680 39 -880 -8 -96 -23 -166 -42 -192 -52 -13 -5 -33 -13 -45 -18 -13 -5
-62 -27 -109 -50 -47 -22 -89 -41 -93 -41 -4 0 -26 -13 -49 -28 -23 -15 -54
-34 -69 -41 -26 -14 -219 -155 -285 -210 -17 -14 -48 -39 -68 -56 -20 -16 -51
-43 -68 -59 -62 -56 -96 -78 -119 -74 l-23 3 -3 318 c-3 354 -3 355 -70 382
-42 18 -96 18 -177 0z"/>
<path d="M13780 9964 c-63 -7 -142 -18 -175 -23 -56 -9 -81 -15 -197 -40 -24
-6 -56 -13 -73 -16 -16 -4 -39 -10 -50 -15 -79 -32 -130 -50 -141 -50 -8 0
-14 -4 -14 -10 0 -5 -6 -10 -14 -10 -22 0 -169 -81 -234 -128 -57 -42 -120
-101 -167 -157 -33 -39 -95 -166 -95 -193 0 -11 -4 -23 -9 -26 -8 -5 -24 -133
-23 -196 0 -62 15 -170 23 -176 5 -3 9 -15 9 -27 0 -19 23 -69 84 -183 15 -30
100 -122 142 -154 36 -29 89 -56 134 -69 25 -7 53 -17 62 -22 10 -5 77 -9 150
-9 146 0 205 13 273 57 46 30 145 126 145 140 0 6 -28 32 -62 59 -88 67 -188
171 -188 193 0 5 -4 11 -8 13 -4 2 -18 36 -31 76 -19 60 -22 88 -18 150 9 125
15 148 58 237 76 157 283 298 514 348 106 23 423 11 575 -22 96 -21 255 -86
279 -114 7 -10 19 -17 25 -17 32 0 206 -206 206 -244 0 -9 4 -16 8 -16 5 0 15
-19 22 -42 7 -24 17 -47 22 -52 4 -6 8 -22 8 -37 0 -15 4 -30 9 -33 4 -3 11
-27 15 -53 3 -27 10 -73 15 -103 5 -30 10 -229 10 -442 1 -339 -1 -389 -15
-402 -12 -13 -40 -16 -127 -17 -62 0 -121 -3 -132 -5 -11 -3 -85 -10 -165 -15
-379 -26 -700 -55 -850 -79 -148 -23 -186 -29 -235 -39 -238 -48 -415 -97
-580 -161 -72 -28 -265 -131 -265 -142 0 -4 -6 -8 -13 -8 -13 0 -125 -88 -172
-135 -52 -53 -125 -139 -125 -147 0 -4 -16 -32 -35 -62 -19 -30 -35 -62 -35
-70 0 -8 -4 -18 -10 -21 -5 -3 -10 -17 -10 -30 0 -13 -4 -26 -9 -29 -33 -21
-58 -416 -33 -536 6 -30 14 -68 17 -85 6 -30 19 -64 36 -97 5 -10 9 -22 9 -28
0 -25 137 -218 198 -279 232 -234 475 -335 887 -371 140 -12 425 8 570 40 153
34 294 74 352 101 24 10 47 19 51 19 5 0 22 6 38 14 16 8 49 24 74 35 125 58
272 164 382 275 78 79 158 183 158 206 0 6 8 10 18 8 12 -2 22 -22 32 -65 9
-34 19 -65 23 -69 4 -4 7 -15 7 -25 0 -20 47 -111 88 -171 104 -150 321 -285
542 -338 116 -28 274 -40 380 -29 203 20 346 61 395 113 21 23 36 85 26 105
-6 11 -11 30 -11 44 0 34 -28 44 -155 58 -60 6 -137 21 -170 33 -120 43 -250
201 -280 341 -3 17 -11 53 -17 80 -8 34 -13 427 -18 1215 -6 1136 -9 1219 -39
1312 -6 18 -20 62 -31 98 -64 198 -185 348 -397 491 -56 38 -106 69 -111 69
-14 0 -62 25 -62 33 0 4 -8 7 -18 7 -10 0 -22 4 -27 8 -6 4 -28 14 -50 21 -22
7 -49 16 -60 20 -44 18 -93 31 -113 31 -11 0 -23 4 -26 9 -3 5 -23 11 -43 14
-21 3 -63 11 -93 16 -306 58 -755 78 -1040 45z m1274 -2060 c14 -13 16 -54 15
-297 0 -155 -5 -307 -10 -337 -5 -30 -12 -74 -15 -98 -4 -23 -11 -45 -15 -48
-5 -3 -9 -21 -9 -40 0 -19 -4 -34 -10 -34 -5 0 -10 -11 -10 -24 0 -14 -4 -28
-10 -31 -5 -3 -10 -15 -10 -26 0 -10 -4 -19 -10 -19 -5 0 -10 -7 -10 -16 0 -9
-30 -62 -66 -118 -119 -182 -321 -358 -509 -445 -38 -17 -78 -36 -87 -41 -10
-6 -27 -10 -37 -10 -11 0 -22 -4 -25 -9 -3 -5 -20 -11 -38 -14 -18 -3 -53 -11
-78 -17 -95 -24 -262 -34 -381 -23 -148 14 -159 17 -249 56 -84 37 -196 142
-230 216 -7 14 -16 34 -21 43 -5 10 -9 27 -9 37 0 11 -4 22 -9 25 -31 20 -31
452 0 472 5 3 9 18 9 34 0 16 5 32 10 35 6 3 10 15 10 25 0 44 105 204 184
281 95 91 258 185 401 230 22 7 44 17 50 21 5 4 18 8 29 8 21 0 80 17 108 31
10 5 33 9 52 9 19 0 37 4 40 9 3 5 23 12 43 15 21 4 63 11 93 16 30 5 82 14
115 20 179 30 298 44 509 59 70 6 131 12 134 15 10 11 30 6 46 -10z"/>
<path d="M29870 9969 c-90 -11 -188 -28 -232 -39 -115 -30 -186 -50 -218 -63
-14 -5 -36 -14 -50 -20 -14 -5 -33 -13 -42 -18 -10 -5 -25 -9 -33 -9 -8 0 -15
-4 -15 -10 0 -5 -6 -10 -13 -10 -27 0 -286 -139 -307 -165 -7 -8 -17 -15 -22
-15 -6 0 -25 -12 -43 -27 -17 -16 -42 -35 -55 -43 -67 -43 -217 -191 -320
-315 -41 -49 -78 -91 -82 -93 -5 -2 -8 -10 -8 -18 0 -8 -4 -14 -10 -14 -5 0
-10 -7 -10 -15 0 -8 -3 -15 -8 -15 -4 0 -12 -8 -17 -19 -6 -10 -26 -43 -45
-72 -19 -30 -42 -67 -50 -84 -8 -16 -17 -32 -20 -35 -6 -6 -15 -24 -58 -120
-51 -111 -60 -134 -72 -175 -7 -22 -16 -48 -21 -57 -5 -10 -9 -29 -9 -42 0
-14 -4 -27 -9 -30 -5 -3 -11 -20 -14 -38 -4 -18 -11 -58 -17 -88 -57 -289 -58
-605 -4 -848 8 -37 18 -86 21 -110 3 -23 10 -45 14 -48 5 -3 9 -20 9 -39 0
-19 5 -37 10 -40 6 -3 10 -16 10 -29 0 -12 4 -26 8 -32 4 -5 14 -27 21 -49 16
-49 56 -146 82 -198 10 -22 19 -45 19 -53 0 -8 3 -14 8 -14 4 0 14 -15 21 -32
8 -18 39 -68 68 -110 29 -42 53 -81 53 -86 0 -6 3 -12 8 -14 4 -1 23 -25 44
-51 122 -160 351 -357 549 -471 45 -26 218 -112 254 -126 164 -65 381 -121
547 -140 43 -5 81 -11 85 -13 13 -7 310 -22 403 -20 172 4 349 23 490 52 117
25 260 67 327 96 114 50 257 124 320 167 40 26 75 48 78 48 5 0 80 55 95 70 3
3 27 23 55 45 156 125 402 406 419 479 12 48 -4 114 -34 144 -44 44 -106 72
-160 72 -40 0 -53 -5 -82 -32 -19 -18 -50 -55 -68 -83 -105 -157 -333 -381
-465 -456 -139 -79 -236 -116 -383 -148 -354 -77 -827 -30 -1097 110 -131 67
-166 90 -258 169 -69 59 -197 195 -197 210 0 4 -4 10 -9 12 -13 5 -92 134
-128 208 -53 111 -83 178 -83 190 0 5 -4 18 -9 28 -9 15 -17 44 -53 187 -5 22
-12 60 -15 85 -3 25 -9 49 -14 54 -5 6 -9 36 -9 67 0 32 -4 68 -9 81 -5 13
-12 98 -15 190 l-7 167 23 6 c13 3 595 6 1293 8 964 2 1280 6 1310 15 22 7 58
17 80 23 131 36 230 102 265 177 7 15 16 35 21 44 31 62 47 222 30 303 -5 28
-20 91 -32 140 -11 50 -23 105 -26 123 -3 18 -9 35 -14 38 -5 3 -9 14 -9 25 0
10 -4 27 -9 37 -5 9 -13 28 -18 42 -28 72 -135 272 -166 311 -12 15 -38 49
-57 76 -81 110 -267 283 -360 334 -14 8 -27 16 -30 19 -3 3 -23 14 -45 26 -22
11 -49 25 -60 31 -11 6 -31 15 -45 20 -14 6 -45 20 -68 32 -24 11 -52 21 -62
21 -11 0 -21 4 -24 9 -3 5 -18 11 -33 14 -16 3 -46 11 -68 17 -91 26 -201 46
-365 65 -136 16 -538 19 -650 4z m585 -304 c94 -24 225 -79 261 -111 12 -11
36 -30 55 -44 61 -46 169 -173 169 -199 0 -6 4 -11 9 -11 5 0 11 -8 14 -17 3
-10 12 -29 21 -43 22 -38 56 -118 56 -133 0 -7 4 -17 9 -23 13 -15 41 -110 41
-143 0 -16 5 -33 10 -36 12 -8 14 -268 1 -293 -5 -9 -16 -34 -25 -55 -25 -58
-89 -121 -159 -155 -80 -40 -113 -49 -222 -61 -103 -12 -1673 -15 -1691 -3
-15 10 9 308 27 327 5 5 9 26 9 46 0 21 5 41 10 44 6 3 10 19 10 35 0 16 5 32
10 35 6 3 10 17 10 31 0 13 4 32 9 42 5 9 17 35 26 57 56 129 124 247 184 321
14 17 33 40 42 50 33 40 166 158 219 194 101 68 228 122 350 150 148 34 397
32 545 -5z"/>
<path d="M14653 1973 c-13 -2 -36 -18 -53 -34 -26 -27 -30 -37 -30 -88 0 -50
4 -61 29 -85 56 -54 156 -54 212 0 25 24 29 35 29 85 0 50 -4 61 -29 87 -38
37 -88 49 -158 35z"/>
<path d="M27950 1973 c-47 -9 -101 -77 -99 -125 2 -67 84 -132 155 -124 62 8
89 24 113 68 33 63 26 106 -28 154 -33 30 -76 38 -141 27z"/>
<path d="M15255 1958 c-3 -7 -4 -352 -3 -767 l3 -753 113 0 112 0 0 763 0 764
-110 3 c-83 2 -112 -1 -115 -10z"/>
<path d="M31860 1661 c0 -203 -4 -312 -10 -316 -6 -4 -39 20 -73 52 -64 59
-135 103 -166 103 -10 0 -21 3 -25 8 -4 4 -47 12 -94 18 -88 12 -226 3 -264
-17 -10 -5 -24 -9 -32 -9 -22 0 -123 -56 -171 -96 -68 -55 -155 -187 -155
-234 0 -9 -5 -21 -12 -28 -16 -16 -15 -309 1 -325 6 -6 11 -18 11 -28 0 -41
75 -156 144 -221 119 -113 312 -164 502 -133 118 19 197 56 268 126 27 27 55
48 60 46 6 -2 12 -40 14 -88 l3 -84 112 1 112 2 0 763 0 764 -112 3 -113 3 0
-310z m-232 -333 c160 -73 257 -256 222 -417 -18 -85 -50 -148 -100 -199 -42
-44 -59 -57 -110 -82 -11 -5 -30 -15 -41 -21 -27 -14 -239 -13 -253 1 -5 5
-18 10 -29 10 -37 0 -177 115 -177 146 0 8 -4 14 -8 14 -4 0 -17 24 -28 53
-14 39 -19 76 -18 147 1 84 4 102 32 160 39 83 100 146 177 181 54 25 71 28
173 29 95 0 120 -3 160 -22z"/>
<path d="M13290 1160 c0 -390 -1 -713 -2 -716 -2 -3 52 -7 120 -7 l122 -2 0
303 0 302 365 0 365 0 0 95 0 95 -365 0 -365 0 0 224 c0 195 2 225 16 230 9 3
191 6 405 6 l389 0 0 90 0 90 -525 0 -525 0 0 -710z"/>
<path d="M17530 1529 c-171 -25 -272 -80 -320 -175 -21 -40 -25 -62 -25 -133
0 -76 3 -92 27 -133 16 -25 40 -56 55 -67 16 -12 33 -25 40 -31 7 -5 16 -10
22 -10 5 0 26 -8 48 -19 21 -10 70 -28 108 -39 213 -62 246 -75 286 -111 37
-33 40 -40 41 -90 1 -51 -1 -57 -36 -87 -43 -37 -76 -46 -171 -47 -120 -1
-186 15 -310 74 -27 13 -56 30 -63 36 -7 7 -17 13 -22 13 -10 0 -50 -53 -50
-67 0 -4 -9 -19 -20 -33 -11 -14 -20 -30 -20 -36 0 -17 150 -91 235 -115 67
-20 105 -23 235 -24 154 0 180 4 275 43 57 23 140 95 155 134 6 18 16 42 22
54 16 34 -3 214 -23 214 -5 0 -9 5 -9 10 0 24 -124 120 -154 120 -8 0 -18 5
-21 10 -3 6 -16 10 -29 10 -12 0 -26 4 -31 8 -6 5 -30 14 -55 21 -200 56 -240
72 -281 111 -24 23 -29 35 -29 77 0 57 19 81 87 108 79 32 256 6 407 -59 21
-10 39 -16 41 -14 9 12 75 139 75 145 0 8 -61 39 -110 56 -60 21 -144 36 -270
50 -25 3 -74 1 -110 -4z"/>
<path d="M28795 1528 c-174 -28 -280 -87 -326 -182 -22 -47 -27 -188 -7 -233
20 -45 85 -108 136 -133 26 -12 55 -26 64 -31 10 -5 27 -9 37 -9 11 0 22 -4
25 -9 3 -5 18 -11 33 -14 75 -13 185 -48 233 -74 108 -59 124 -174 30 -223
-84 -43 -131 -47 -275 -22 -48 9 -65 14 -110 32 -11 4 -36 14 -55 21 -19 7
-52 24 -73 38 -23 14 -41 21 -47 15 -19 -19 -71 -128 -66 -140 7 -19 166 -91
246 -110 55 -14 113 -19 220 -19 126 0 155 3 218 24 110 36 170 82 209 161 53
107 41 211 -33 298 -40 47 -148 112 -185 112 -10 0 -21 5 -24 10 -3 6 -17 10
-30 10 -13 0 -27 5 -30 10 -3 6 -17 10 -30 10 -13 0 -34 4 -47 9 -13 5 -43 15
-68 22 -42 12 -79 30 -128 60 -43 27 -54 91 -25 140 28 47 75 64 178 63 115
-1 219 -25 308 -71 15 -7 31 -12 36 -9 4 3 24 37 44 75 l36 69 -22 14 c-55 36
-144 63 -252 78 -122 16 -161 18 -220 8z"/>
<path d="M16295 1519 c-114 -15 -145 -26 -254 -90 -75 -44 -150 -127 -188
-209 -38 -80 -46 -127 -46 -250 0 -114 2 -131 28 -195 54 -133 135 -220 259
-280 112 -53 146 -59 321 -59 127 0 172 4 220 18 110 34 255 118 255 148 0 11
-101 108 -112 108 -5 0 -29 -15 -55 -33 -27 -18 -61 -39 -78 -46 -16 -7 -38
-17 -47 -22 -10 -5 -33 -9 -52 -9 -19 0 -47 -5 -63 -11 -30 -11 -178 6 -197
23 -6 4 -16 8 -24 8 -18 0 -101 57 -133 92 -14 15 -36 50 -49 76 -12 26 -26
55 -31 64 -25 50 -42 48 451 48 l460 0 0 119 c0 69 -4 122 -10 126 -5 3 -10
17 -10 30 0 38 -53 141 -107 205 -23 28 -128 100 -145 100 -8 0 -18 4 -23 8
-34 29 -249 47 -370 31z m202 -160 c119 -29 216 -112 248 -212 31 -99 60 -92
-348 -95 -353 -2 -357 -2 -357 18 0 28 23 100 32 100 5 0 8 7 8 16 0 8 21 38
46 65 93 97 238 139 371 108z"/>
<path d="M19545 1523 c-40 -4 -108 -24 -119 -35 -6 -4 -17 -8 -25 -8 -30 -1
-161 -119 -161 -145 0 -8 -9 -15 -20 -15 -19 0 -20 7 -20 100 l0 100 -120 0
-120 0 2 -541 3 -541 108 0 c59 1 111 1 116 1 5 1 11 137 13 319 l4 317 26 49
c63 117 178 193 310 204 l73 7 3 98 c3 108 10 100 -73 90z"/>
<path d="M20245 1523 c-33 -2 -64 -8 -69 -14 -6 -5 -19 -9 -31 -9 -54 0 -210
-98 -273 -170 -37 -44 -92 -144 -92 -169 0 -9 -5 -22 -11 -28 -17 -17 -18
-298 -1 -315 6 -6 12 -18 12 -25 0 -47 107 -204 162 -237 15 -9 33 -22 40 -29
17 -17 121 -61 183 -78 32 -9 103 -14 200 -14 164 0 243 17 350 73 55 29 125
81 125 93 0 4 -26 32 -57 62 l-57 55 -35 -29 c-20 -16 -41 -29 -48 -29 -7 0
-13 -3 -13 -7 0 -11 -50 -33 -71 -33 -10 0 -21 -4 -24 -10 -3 -5 -22 -10 -42
-10 -20 0 -51 -5 -69 -12 -33 -12 -82 -5 -189 25 -107 30 -228 156 -237 248
l-3 34 460 5 460 5 -1 65 c-2 91 -15 200 -25 206 -5 3 -9 16 -9 29 0 29 -57
128 -102 176 -45 48 -114 93 -168 108 -25 7 -52 17 -61 21 -20 10 -222 19
-304 13z m220 -170 c41 -10 128 -54 149 -76 51 -52 86 -129 86 -189 l0 -38
-360 0 c-198 0 -360 3 -360 7 0 14 24 80 44 122 70 147 251 219 441 174z"/>
<path d="M21595 1522 c-27 -2 -54 -7 -59 -13 -6 -5 -20 -9 -33 -9 -13 0 -31
-4 -41 -9 -9 -5 -39 -19 -67 -32 -130 -61 -235 -182 -276 -319 -17 -55 -19
-300 -3 -321 6 -8 16 -33 24 -56 7 -24 16 -43 19 -43 3 0 13 -15 20 -32 23
-51 131 -150 202 -185 112 -55 168 -67 334 -67 169 -1 242 13 346 66 68 35
178 137 200 186 7 17 17 32 20 32 3 0 12 19 19 43 8 23 18 48 24 56 16 21 14
278 -3 321 -62 161 -146 258 -276 319 -27 13 -58 27 -67 32 -10 5 -28 9 -41 9
-13 0 -27 4 -33 10 -10 10 -224 18 -309 12z m255 -185 c69 -25 118 -57 157
-101 68 -77 97 -157 96 -261 -2 -121 -31 -192 -108 -271 -46 -46 -66 -59 -148
-93 -36 -14 -218 -14 -254 0 -82 34 -102 47 -148 93 -78 79 -106 152 -107 271
-1 63 12 144 23 151 5 3 9 12 9 20 0 16 6 24 68 94 36 41 100 81 162 103 31
11 216 6 250 -6z"/>
<path d="M23220 1523 c-79 -8 -171 -55 -236 -118 -28 -27 -55 -58 -60 -67 -5
-9 -15 -18 -22 -20 -11 -2 -14 18 -12 100 l1 102 -120 0 -121 0 0 -542 0 -543
112 2 c62 1 116 2 121 2 4 1 7 143 7 316 0 173 4 323 9 333 5 9 15 30 22 45
23 49 112 132 172 161 40 19 80 29 132 33 l75 6 0 98 c0 111 8 101 -80 92z"/>
<path d="M23855 1523 c-22 -2 -49 -7 -60 -12 -11 -5 -36 -15 -55 -22 -19 -7
-47 -21 -62 -31 -14 -10 -30 -18 -35 -18 -4 0 -35 -28 -69 -63 -57 -59 -96
-125 -122 -208 -15 -44 -16 -295 -2 -304 6 -3 10 -17 10 -30 0 -36 57 -135
116 -201 44 -48 152 -107 239 -130 68 -19 247 -18 309 1 83 25 154 65 196 111
22 24 45 44 50 44 13 0 13 -214 1 -238 -5 -9 -15 -30 -22 -47 -33 -71 -125
-140 -230 -174 -42 -13 -214 -15 -255 -2 -16 5 -49 15 -74 22 -44 13 -143 61
-166 80 -9 7 -18 1 -33 -20 -12 -16 -21 -34 -21 -40 0 -6 -4 -11 -8 -11 -9 0
-42 -53 -42 -68 0 -6 24 -22 53 -35 175 -82 241 -97 432 -97 165 0 240 14 351
67 74 35 174 128 203 190 13 26 27 56 33 66 32 62 38 170 38 668 l0 499 -125
0 -125 0 0 -80 c0 -44 -4 -80 -9 -80 -5 0 -31 20 -56 45 -42 40 -88 67 -180
105 -30 12 -202 20 -280 13z m254 -164 c76 -23 143 -63 186 -111 25 -28 45
-56 45 -64 0 -8 5 -14 10 -14 6 0 10 -11 10 -24 0 -14 5 -28 10 -31 6 -3 10
-52 10 -110 0 -58 -4 -107 -10 -110 -5 -3 -10 -17 -10 -31 0 -13 -4 -24 -10
-24 -5 0 -10 -7 -10 -16 0 -23 -99 -116 -150 -141 -54 -26 -86 -34 -164 -40
-35 -3 -62 -1 -69 6 -6 6 -21 11 -33 11 -34 0 -87 26 -142 69 -39 31 -60 58
-87 114 -32 67 -35 82 -35 158 0 114 27 184 98 257 45 47 120 92 153 92 13 0
31 5 39 10 20 13 115 13 159 -1z"/>
<path d="M25340 1519 c-104 -15 -130 -21 -136 -30 -3 -5 -14 -9 -24 -9 -11 0
-35 -9 -55 -20 -20 -11 -42 -20 -50 -20 -8 0 -15 -4 -15 -10 0 -5 -9 -10 -20
-10 -11 0 -20 -4 -20 -10 0 -5 -7 -10 -15 -10 -23 0 -18 -14 19 -59 19 -23 38
-50 41 -61 8 -25 12 -25 68 4 87 47 221 85 299 86 53 0 139 -16 183 -36 37
-16 95 -71 95 -90 0 -8 4 -14 9 -14 4 0 11 -17 14 -37 4 -21 8 -47 10 -58 11
-51 6 -52 -265 -58 -261 -7 -298 -12 -391 -55 -55 -26 -127 -87 -127 -108 0
-8 -4 -14 -8 -14 -26 0 -47 -220 -22 -235 6 -3 10 -17 10 -31 0 -13 3 -24 8
-24 4 0 13 -12 20 -27 16 -36 96 -97 158 -121 172 -68 454 -34 560 66 12 12
30 22 40 24 16 3 20 -5 24 -56 l5 -58 110 0 110 0 3 368 c3 421 -3 473 -64
557 -37 51 -119 116 -146 117 -9 0 -20 5 -23 10 -3 6 -16 10 -29 10 -12 0 -26
4 -32 10 -13 13 -273 20 -344 9z m389 -598 c15 -10 18 -85 6 -139 -12 -50 -77
-116 -148 -150 -109 -53 -176 -60 -299 -35 -44 10 -128 67 -128 88 0 8 -4 15
-10 15 -6 0 -10 26 -10 58 0 99 52 149 170 163 85 10 403 10 419 0z"/>
<path d="M26940 1520 c-142 -26 -232 -76 -292 -161 -15 -22 -32 -39 -38 -39
-6 0 -10 39 -10 100 l0 100 -125 0 -125 0 2 -541 3 -541 120 0 120 0 5 318 c3
176 9 328 13 339 48 114 122 191 209 221 77 27 218 24 278 -5 60 -28 130 -95
130 -124 0 -7 6 -19 13 -25 9 -10 13 -101 15 -370 l4 -357 116 2 117 1 3 378
c2 410 1 424 -55 522 -45 79 -105 126 -217 171 -36 15 -227 22 -286 11z"/>
<path d="M30000 1524 c-62 -5 -115 -21 -200 -58 -43 -18 -144 -88 -165 -114
-11 -13 -30 -36 -42 -50 -24 -28 -63 -107 -82 -165 -18 -53 -16 -262 2 -324
60 -200 232 -341 456 -374 122 -17 290 -6 384 25 108 36 227 110 227 140 0 6
-26 34 -57 63 l-58 52 -25 -23 c-86 -81 -263 -126 -395 -102 -151 28 -281 143
-301 266 l-7 40 459 2 459 3 -3 105 c-1 58 -9 129 -18 160 -19 65 -73 180 -85
180 -5 0 -9 6 -9 13 0 6 -25 30 -55 51 -73 53 -104 69 -185 94 -38 12 -228 22
-300 16z m212 -172 c122 -33 209 -124 231 -239 13 -66 31 -63 -359 -63 l-354
0 0 25 c0 14 4 33 9 43 5 9 19 39 32 65 25 54 94 121 149 145 87 40 202 49
292 24z"/>
<path d="M14592 979 l3 -541 110 0 110 0 3 541 2 541 -115 0 -115 0 2 -541z"/>
<path d="M27875 1508 c-3 -7 -4 -251 -3 -542 l3 -528 120 0 120 0 3 541 2 541
-120 0 c-87 0 -122 -3 -125 -12z"/>
</g>
</svg>
