<svg xmlns="http://www.w3.org/2000/svg" version="1.1" xmlns:xlink="http://www.w3.org/1999/xlink" xmlns:svgjs="http://svgjs.dev/svgjs" width="1500" height="621" viewBox="0 0 1500 621"><g transform="matrix(1,0,0,1,-0.9404960828270532,-0.5436966637470277)"><svg viewBox="0 0 396 164" data-background-color="#ffffff" preserveAspectRatio="xMidYMid meet" height="621" width="1500" xmlns="http://www.w3.org/2000/svg" xmlns:xlink="http://www.w3.org/1999/xlink"><g id="tight-bounds" transform="matrix(1,0,0,1,0.24829096586634591,0.14358494823592594)"><svg viewBox="0 0 395.5199999999999 163.71283010352815" height="163.71283010352815" width="395.5199999999999"><g><svg viewBox="0 0 395.52000000000004 163.71283010352818" height="163.71283010352815" width="395.5199999999999"><g><svg viewBox="0 0 395.52000000000004 163.71283010352818" height="163.71283010352818" width="395.52000000000004"><g id="textblocktransform"><svg viewBox="0 0 395.52000000000004 163.71283010352818" height="163.71283010352818" width="395.52000000000004" id="textblock"><g><svg viewBox="0 0 395.52000000000004 110.78698940844784" height="110.78698940844784" width="395.52000000000004"><g transform="matrix(1,0,0,1,0,0)"><svg width="395.52000000000004" viewBox="0.7444438889 -35.05 165.62888944443336 45.949999999999996" height="110.78698940844784" data-palette-color="#398378"><g class="wordmark-text-0" data-fill-palette-color="primary" id="text-0"><path d="M1.95 9.6L1.95 9.6Q1.1 9.75 0.8 8.75L0.8 8.75Q0.55 7.8 1.3 7.5L1.3 7.5Q3.9 6.4 5.08 4.4 6.25 2.4 6.58-0.7 6.9-3.8 6.9-8.1L6.9-8.1 6.9-25.7Q6.9-26.65 6.73-27.53 6.55-28.4 5.9-28.98 5.25-29.55 3.65-29.55L3.65-29.55Q3.15-29.55 2.78-29.65 2.4-29.75 2.35-30.6L2.35-30.6Q2.35-31 2.58-31.35 2.8-31.7 3.25-31.7L3.25-31.7Q4.85-31.65 6.28-31.6 7.7-31.55 9.2-31.55L9.2-31.55Q12.25-31.55 15.45-31.7L15.45-31.7Q15.9-31.7 16.13-31.35 16.35-31 16.35-30.6L16.35-30.6Q16.3-29.75 15.95-29.65 15.6-29.55 15.05-29.55L15.05-29.55Q13.5-29.55 12.83-28.98 12.15-28.4 12-27.53 11.85-26.65 11.8-25.7L11.8-25.7 11.8-6.4Q11.8-2.45 10.9 0.85 10 4.15 7.85 6.43 5.7 8.7 1.95 9.6ZM20.5 0.15L20.5 0.15Q20.15 0.15 19.92-0.18 19.7-0.5 19.7-0.85L19.7-0.85Q19.8-1.6 20.1-1.68 20.4-1.75 20.9-1.75L20.9-1.75Q22.3-1.75 22.8-2.23 23.3-2.7 23.37-3.5 23.45-4.3 23.45-5.15L23.45-5.15 23.45-16.6Q23.45-17.5 23.37-18.28 23.3-19.05 22.8-19.53 22.3-20 20.9-20L20.9-20Q20.45-20 20.07-20.13 19.7-20.25 19.7-21L19.7-21Q19.7-21.75 20.5-21.9L20.5-21.9Q22.8-22.25 24.02-22.6 25.25-22.95 25.9-23.2 26.55-23.45 27.05-23.5L27.05-23.5Q27.45-23.55 27.72-23.35 28-23.15 28-22.55L28-22.55 28-5.15Q28-4.3 28.07-3.5 28.15-2.7 28.67-2.23 29.2-1.75 30.6-1.75L30.6-1.75Q31.05-1.75 31.37-1.68 31.7-1.6 31.75-0.85L31.75-0.85Q31.75-0.5 31.55-0.18 31.35 0.15 30.95 0.15L30.95 0.15Q29.5 0.05 28.27 0.03 27.05 0 25.7 0L25.7 0Q24.35 0 23.15 0.03 21.95 0.05 20.5 0.15ZM25.45-29.05L25.45-29.05Q24.05-29.05 23.1-29.93 22.15-30.8 22.15-32.1L22.15-32.1Q22.15-33.25 23.3-34.15 24.45-35.05 25.9-35.05L25.9-35.05Q27.15-35.05 27.95-34.18 28.75-33.3 28.75-31.95L28.75-31.95Q28.75-30.75 27.8-29.9 26.85-29.05 25.45-29.05ZM34.8 10.4L34.8 10.4Q34.45 10.4 34.22 10.08 33.99 9.75 33.99 9.4L33.99 9.4Q34.05 8.65 34.37 8.58 34.7 8.5 35.14 8.5L35.14 8.5Q36.49 8.5 37.02 8.03 37.55 7.55 37.64 6.75 37.74 5.95 37.74 5.1L37.74 5.1 37.74-16.6Q37.74-17.5 37.67-18.28 37.59-19.05 37.09-19.53 36.59-20 35.2-20L35.2-20Q34.74-20 34.37-20.13 33.99-20.25 33.99-21L33.99-21Q33.99-21.75 34.8-21.9L34.8-21.9Q37.09-22.25 38.32-22.6 39.55-22.95 40.17-23.2 40.8-23.45 41.3-23.5L41.3-23.5Q41.7-23.55 41.97-23.35 42.24-23.15 42.24-22.55L42.24-22.55 42.24-20.15 42.39-20.15Q43.8-21.45 45.74-22.35 47.7-23.25 49.5-23.25L49.5-23.25Q52.55-23.25 54.89-21.75 57.25-20.25 58.59-17.57 59.95-14.9 59.95-11.35L59.95-11.35Q59.95-7.75 58.3-5.05 56.64-2.35 54.05-0.88 51.45 0.6 48.49 0.6L48.49 0.6Q46.24 0.6 44.87 0.13 43.49-0.35 42.49-0.95L42.49-0.95 42.3-0.95 42.3 5.1Q42.3 5.95 42.39 6.75 42.49 7.55 43.05 8.03 43.59 8.5 44.89 8.5L44.89 8.5Q45.34 8.5 45.67 8.58 45.99 8.65 46.05 9.4L46.05 9.4Q46.05 9.75 45.84 10.08 45.64 10.4 45.24 10.4L45.24 10.4Q43.8 10.3 42.57 10.28 41.34 10.25 39.99 10.25L39.99 10.25Q38.64 10.25 37.45 10.28 36.24 10.3 34.8 10.4ZM48.09-1.1L48.09-1.1Q50.05-1.1 51.34-2.08 52.64-3.05 53.42-4.58 54.2-6.1 54.52-7.88 54.84-9.65 54.84-11.2L54.84-11.2Q54.84-13.55 54.12-15.73 53.39-17.9 51.82-19.33 50.25-20.75 47.7-20.75L47.7-20.75Q45.8-20.75 44.55-19.98 43.3-19.2 42.3-18.15L42.3-18.15 42.3-4.75Q42.84-3.45 44.32-2.27 45.8-1.1 48.09-1.1ZM70.44 0.6L70.44 0.6Q67.39 0.6 65.57-1.15 63.74-2.9 63.74-5.35L63.74-5.35Q63.74-7.9 65.07-9.35 66.39-10.8 68.57-11.5 70.74-12.2 73.32-12.45 75.89-12.7 78.34-12.85L78.34-12.85 78.34-16.8Q78.34-19.15 77.17-20.48 75.99-21.8 73.19-21.8L73.19-21.8Q71.79-21.8 70.57-20.9 69.34-20 69.34-18.3L69.34-18.3Q69.34-17.5 69.74-16.95 70.14-16.4 70.54-16.1 70.94-15.8 70.94-15.7L70.94-15.7Q70.94-15.5 70.37-14.98 69.79-14.45 68.79-14.45L68.79-14.45Q67.24-14.45 66.39-15.6 65.54-16.75 65.54-18.15L65.54-18.15Q65.54-20.05 66.72-21.15 67.89-22.25 69.74-22.75 71.59-23.25 73.49-23.25L73.49-23.25Q75.74-23.25 77.87-22.7 79.99-22.15 81.37-20.6 82.74-19.05 82.74-15.95L82.74-15.95 82.74-4.3Q82.79-3.8 82.99-3.1 83.19-2.4 83.77-1.88 84.34-1.35 85.34-1.35L85.34-1.35Q85.69-1.35 85.89-1.23 86.09-1.1 86.09-0.55L86.09-0.55Q86.09-0.1 85.59 0.15 85.09 0.4 84.44 0.5 83.79 0.6 83.34 0.6L83.34 0.6Q81.49 0.6 80.04-0.48 78.59-1.55 78.34-3.45L78.34-3.45Q77.24-1.45 75.07-0.43 72.89 0.6 70.44 0.6ZM72.04-2.1L72.04-2.1Q73.74-2.1 75.17-2.95 76.59-3.8 77.47-5.28 78.34-6.75 78.34-8.55L78.34-8.55 78.34-11.4Q73.19-11.05 70.99-9.75 68.79-8.45 68.79-5.5L68.79-5.5Q68.79-2.1 72.04-2.1ZM89.54 0.15L89.54 0.15Q89.19 0.15 88.97-0.18 88.74-0.5 88.74-0.85L88.74-0.85Q88.84-1.6 89.14-1.68 89.44-1.75 89.94-1.75L89.94-1.75Q91.34-1.75 91.84-2.23 92.34-2.7 92.42-3.5 92.49-4.3 92.49-5.15L92.49-5.15 92.49-16.6Q92.49-17.5 92.42-18.28 92.34-19.05 91.84-19.53 91.34-20 89.94-20L89.94-20Q89.49-20 89.12-20.13 88.74-20.25 88.74-21L88.74-21Q88.74-21.75 89.54-21.9L89.54-21.9Q91.84-22.25 93.06-22.6 94.29-22.95 94.92-23.2 95.54-23.45 96.04-23.5L96.04-23.5Q96.44-23.55 96.72-23.35 96.99-23.15 96.99-22.55L96.99-22.55 96.99-19.4 97.14-19.4Q98.14-20.35 99.19-21.23 100.24-22.1 101.67-22.68 103.09-23.25 105.19-23.25L105.19-23.25Q108.59-23.25 110.59-21.2 112.59-19.15 112.59-15.8L112.59-15.8 112.59-5.15Q112.59-4.3 112.67-3.5 112.74-2.7 113.27-2.23 113.79-1.75 115.19-1.75L115.19-1.75Q115.64-1.75 115.97-1.68 116.29-1.6 116.34-0.85L116.34-0.85Q116.34-0.5 116.14-0.18 115.94 0.15 115.54 0.15L115.54 0.15Q114.09 0.05 112.87 0.03 111.64 0 110.29 0L110.29 0Q108.94 0 107.74 0.03 106.54 0.05 105.09 0.15L105.09 0.15Q104.74 0.15 104.52-0.18 104.29-0.5 104.29-0.85L104.29-0.85Q104.34-1.6 104.67-1.68 104.99-1.75 105.44-1.75L105.44-1.75Q106.84-1.75 107.37-2.23 107.89-2.7 107.97-3.5 108.04-4.3 108.04-5.15L108.04-5.15 108.04-15.75Q108.04-17.4 107.31-18.45 106.59-19.5 105.49-20 104.39-20.5 103.24-20.5L103.24-20.5Q101.54-20.5 100.24-19.88 98.94-19.25 98.14-18.45 97.34-17.65 97.04-17.05L97.04-17.05 97.04-5.15Q97.04-4.3 97.12-3.5 97.19-2.7 97.72-2.23 98.24-1.75 99.64-1.75L99.64-1.75Q100.09-1.75 100.42-1.68 100.74-1.6 100.79-0.85L100.79-0.85Q100.79-0.5 100.59-0.18 100.39 0.15 99.99 0.15L99.99 0.15Q98.54 0.05 97.31 0.03 96.09 0 94.74 0L94.74 0Q93.39 0 92.19 0.03 90.99 0.05 89.54 0.15ZM128.94 10.9L128.94 10.9Q118.39 10.9 118.39 4.9L118.39 4.9Q118.39 3.25 119.44 1.98 120.49 0.7 122.24 0.7L122.24 0.7Q123.39 0.7 124.14 1.33 124.89 1.95 124.89 2.2L124.89 2.2Q124.89 2.3 124.51 2.65 124.14 3 123.76 3.6 123.39 4.2 123.39 5.2L123.39 5.2Q123.39 9.05 129.99 9.05L129.99 9.05Q133.74 9.05 135.81 7.75 137.89 6.45 137.89 3.8L137.89 3.8Q137.89 2.35 136.96 1.6 136.04 0.85 134.51 0.55 132.99 0.25 131.14 0.18 129.29 0.1 127.41 0.05 125.54 0 123.94-0.25L123.94-0.25Q122.19-0.55 121.01-1.43 119.84-2.3 119.84-4.3L119.84-4.3Q119.84-6.15 121.16-7.53 122.49-8.9 125.14-8.9L125.14-8.9Q121.94-10.15 120.86-11.95 119.79-13.75 119.79-15.65L119.79-15.65Q119.79-17.8 121.01-19.53 122.24-21.25 124.41-22.28 126.59-23.3 129.44-23.3L129.44-23.3Q130.84-23.3 132.36-23.08 133.89-22.85 134.99-22.3L134.99-22.3 141.84-23.6Q142.39-23.65 142.59-23.25 142.79-22.85 142.79-22.4L142.79-22.4Q142.79-21.75 142.59-21.13 142.39-20.5 142.04-20.5L142.04-20.5 137.09-20.7 137.09-20.6Q137.94-19.75 138.54-18.35 139.14-16.95 139.14-15.7L139.14-15.7Q139.14-13.3 137.76-11.55 136.39-9.8 134.26-8.88 132.14-7.95 129.84-7.95L129.84-7.95 127.64-7.95Q125.04-7.95 123.86-7.45 122.69-6.95 122.69-5.8L122.69-5.8Q122.69-4.9 123.31-4.42 123.94-3.95 125.59-3.85L125.59-3.85 132.44-3.6Q137.79-3.4 140.06-1.9 142.34-0.4 142.34 2.55L142.34 2.55Q142.34 5.2 140.66 7.08 138.99 8.95 135.96 9.93 132.94 10.9 128.94 10.9ZM129.44-9.4L129.44-9.4Q131.74-9.4 133.19-11.03 134.64-12.65 134.64-15.7L134.64-15.7Q134.64-18.5 133.16-20.13 131.69-21.75 129.39-21.75L129.39-21.75Q127.19-21.75 125.71-20.18 124.24-18.6 124.24-15.8L124.24-15.8Q124.24-12.75 125.71-11.08 127.19-9.4 129.44-9.4ZM156.94 0.6L156.94 0.6Q153.09 0.6 150.46-1.05 147.84-2.7 146.53-5.45 145.24-8.2 145.24-11.45L145.24-11.45Q145.24-13.65 146.01-15.73 146.78-17.8 148.24-19.53 149.69-21.25 151.74-22.25 153.78-23.25 156.38-23.25L156.38-23.25Q160.99-23.25 163.31-20.88 165.63-18.5 165.99-14.85L165.99-14.85Q165.99-13.1 165.01-12.55 164.03-12 162.49-12L162.49-12 150.34-12Q150.34-9.1 151.13-6.83 151.94-4.55 153.66-3.23 155.38-1.9 158.24-1.9L158.24-1.9Q160.34-1.9 161.84-2.8 163.34-3.7 164.74-5.95L164.74-5.95Q165.13-6.45 165.84-6L165.84-6Q166.24-5.8 166.34-5.38 166.44-4.95 166.24-4.65L166.24-4.65Q164.69-2.2 162.34-0.8 159.99 0.6 156.94 0.6ZM150.34-13.9L150.34-13.9 158.49-13.9Q159.69-13.9 160.41-14.38 161.13-14.85 161.19-16L161.19-16Q161.19-18.15 160.01-19.83 158.84-21.5 156.38-21.5L156.38-21.5Q153.88-21.5 152.21-19.5 150.53-17.5 150.34-13.9Z" fill="#398378" data-fill-palette-color="primary"></path></g></svg></g></svg></g><g transform="matrix(1,0,0,1,163.31020800000002,136.94113872003658)"><svg viewBox="0 0 232.20979200000002 26.7716913834916" height="26.7716913834916" width="232.20979200000002"><g transform="matrix(1,0,0,1,0,0)"><svg width="232.20979200000002" viewBox="4.6 -37.5 410.65999999999997 47.35" height="26.7716913834916" data-palette-color="#398378"><path d="M4.6 0L4.6-35 28.1-35 28.05-29.95 10.5-29.95 10.5-19.55 26.4-19.55 26.4-14.55 10.5-14.55 10.5 0 4.6 0ZM33 0L33-26.55 38.7-26.55 38.7 0 33 0ZM35.85-37.5L35.85-37.5Q37.3-37.5 38.25-36.55 39.2-35.6 39.2-34.15L39.2-34.15Q39.2-32.75 38.25-31.78 37.3-30.8 35.85-30.8L35.85-30.8Q34.45-30.8 33.47-31.78 32.5-32.75 32.5-34.15L32.5-34.15Q32.5-35.6 33.47-36.55 34.45-37.5 35.85-37.5ZM47.45 0L47.45-37.1 53.2-37.1 53.2 0 47.45 0ZM64.09-15.2L80.34-15.2Q80.24-17.45 79.32-19.03 78.39-20.6 76.74-21.48 75.09-22.35 72.94-22.35L72.94-22.35Q70.54-22.35 68.77-21.25 66.99-20.15 65.99-18.18 64.99-16.2 64.99-13.55L64.99-13.55Q64.99-10.7 66.07-8.6 67.14-6.5 69.07-5.35 70.99-4.2 73.49-4.2L73.49-4.2Q77.94-4.2 80.99-7.35L80.99-7.35 84.04-4.3Q82.09-2.15 79.29-0.98 76.49 0.2 73.04 0.2L73.04 0.2Q68.94 0.2 65.89-1.5 62.84-3.2 61.14-6.23 59.44-9.25 59.44-13.25L59.44-13.25Q59.44-17.25 61.14-20.28 62.84-23.3 65.89-25 68.94-26.7 72.89-26.75L72.89-26.75Q77.59-26.75 80.44-24.83 83.29-22.9 84.49-19.4 85.69-15.9 85.34-11.1L85.34-11.1 64.09-11.1 64.09-15.2ZM108.59-24.15L106.49-20.1Q104.74-21.15 102.67-21.78 100.59-22.4 98.84-22.4L98.84-22.4Q97.14-22.4 96.04-21.75 94.94-21.1 94.94-19.6L94.94-19.6Q94.94-18.35 95.97-17.63 96.99-16.9 98.59-16.4 100.19-15.9 101.99-15.35 103.79-14.8 105.42-13.93 107.04-13.05 108.04-11.55 109.04-10.05 109.04-7.6L109.04-7.6Q109.04-4.9 107.62-3.18 106.19-1.45 103.87-0.63 101.54 0.2 98.84 0.2L98.84 0.2Q95.94 0.2 93.04-0.75 90.14-1.7 88.14-3.5L88.14-3.5 90.19-7.4Q91.94-5.85 94.44-4.98 96.94-4.1 99.09-4.1L99.09-4.1Q100.34-4.1 101.31-4.42 102.29-4.75 102.87-5.4 103.44-6.05 103.44-7.1L103.44-7.1Q103.44-8.5 102.44-9.3 101.44-10.1 99.84-10.63 98.24-11.15 96.44-11.68 94.64-12.2 93.06-13.05 91.49-13.9 90.49-15.35 89.49-16.8 89.49-19.2L89.49-19.2Q89.49-21.9 90.89-23.58 92.29-25.25 94.52-26.03 96.74-26.8 99.29-26.8L99.29-26.8Q101.79-26.8 104.29-26.1 106.79-25.4 108.59-24.15L108.59-24.15ZM143.29-26.75L143.29-21.55Q140.44-21.7 138.36-20.58 136.28-19.45 135.16-17.45 134.03-15.45 134.03-12.85L134.03-12.85 132.44-13.05Q132.44-17.5 133.74-20.55 135.03-23.6 137.49-25.18 139.94-26.75 143.29-26.75L143.29-26.75ZM128.34 0L128.34-26.55 134.09-26.55 134.09 0 128.34 0ZM150.18-15.2L166.43-15.2Q166.33-17.45 165.41-19.03 164.48-20.6 162.83-21.48 161.18-22.35 159.03-22.35L159.03-22.35Q156.63-22.35 154.86-21.25 153.08-20.15 152.08-18.18 151.08-16.2 151.08-13.55L151.08-13.55Q151.08-10.7 152.16-8.6 153.23-6.5 155.16-5.35 157.08-4.2 159.58-4.2L159.58-4.2Q164.03-4.2 167.08-7.35L167.08-7.35 170.13-4.3Q168.18-2.15 165.38-0.98 162.58 0.2 159.13 0.2L159.13 0.2Q155.03 0.2 151.98-1.5 148.93-3.2 147.23-6.23 145.53-9.25 145.53-13.25L145.53-13.25Q145.53-17.25 147.23-20.28 148.93-23.3 151.98-25 155.03-26.7 158.98-26.75L158.98-26.75Q163.68-26.75 166.53-24.83 169.38-22.9 170.58-19.4 171.78-15.9 171.43-11.1L171.43-11.1 150.18-11.1 150.18-15.2ZM188.83-26.75L188.83-26.75Q192.93-26.75 196.06-25.05 199.18-23.35 200.93-20.33 202.68-17.3 202.68-13.3L202.68-13.3Q202.68-9.3 200.93-6.25 199.18-3.2 196.06-1.5 192.93 0.2 188.83 0.2L188.83 0.2Q184.73 0.2 181.58-1.5 178.43-3.2 176.68-6.25 174.93-9.3 174.93-13.3L174.93-13.3Q174.93-17.3 176.68-20.33 178.43-23.35 181.58-25.05 184.73-26.75 188.83-26.75ZM188.83-22.1L188.83-22.1Q186.43-22.1 184.58-20.98 182.73-19.85 181.71-17.85 180.68-15.85 180.68-13.25L180.68-13.25Q180.68-10.6 181.71-8.6 182.73-6.6 184.58-5.48 186.43-4.35 188.83-4.35L188.83-4.35Q191.23-4.35 193.06-5.48 194.88-6.6 195.91-8.6 196.93-10.6 196.93-13.25L196.93-13.25Q196.93-15.85 195.91-17.85 194.88-19.85 193.06-20.98 191.23-22.1 188.83-22.1ZM223.63-26.75L223.63-21.55Q220.78-21.7 218.7-20.58 216.63-19.45 215.5-17.45 214.38-15.45 214.38-12.85L214.38-12.85 212.78-13.05Q212.78-17.5 214.08-20.55 215.38-23.6 217.83-25.18 220.28-26.75 223.63-26.75L223.63-26.75ZM208.68 0L208.68-26.55 214.43-26.55 214.43 0 208.68 0ZM252.38-26.55L252.38-2.65Q252.38 1.2 250.68 4 248.98 6.8 245.88 8.33 242.78 9.85 238.58 9.85L238.58 9.85Q235.48 9.85 232.73 8.93 229.98 8 227.53 6.35L227.53 6.35 229.98 2.4Q231.88 3.8 233.88 4.58 235.88 5.35 238.33 5.35L238.33 5.35Q240.88 5.35 242.75 4.38 244.63 3.4 245.65 1.65 246.68-0.1 246.68-2.5L246.68-2.5 246.68-26.55 252.38-26.55ZM237.68-26.75L237.68-26.75Q241.18-26.8 243.65-25.28 246.13-23.75 247.43-20.9 248.73-18.05 248.68-14.05L248.68-14.05Q248.73-10.05 247.45-7.18 246.18-4.3 243.75-2.78 241.33-1.25 237.88-1.25L237.88-1.25Q234.28-1.25 231.58-2.88 228.88-4.5 227.38-7.4 225.88-10.3 225.88-14.1L225.88-14.1Q225.88-17.85 227.35-20.68 228.83-23.5 231.5-25.13 234.18-26.75 237.68-26.75ZM239.03-22.35L239.03-22.35Q236.78-22.35 235.03-21.28 233.28-20.2 232.3-18.3 231.33-16.4 231.28-13.95L231.28-13.95Q231.33-11.5 232.3-9.6 233.28-7.7 235-6.63 236.73-5.55 239.03-5.55L239.03-5.55Q241.28-5.55 243-6.63 244.73-7.7 245.7-9.6 246.68-11.5 246.68-13.95L246.68-13.95Q246.68-16.45 245.7-18.32 244.73-20.2 243-21.28 241.28-22.35 239.03-22.35ZM277.02-11.85L269.07-11.85Q266.27-11.85 264.92-11 263.57-10.15 263.57-8.2L263.57-8.2Q263.57-6.35 264.95-5.25 266.32-4.15 268.72-4.15L268.72-4.15Q270.87-4.15 272.57-4.9 274.27-5.65 275.27-6.93 276.27-8.2 276.32-9.8L276.32-9.8 277.42-4.95Q276.17-2.35 273.62-1.05 271.07 0.25 267.52 0.25L267.52 0.25Q264.67 0.25 262.57-0.85 260.47-1.95 259.32-3.83 258.17-5.7 258.17-8L258.17-8Q258.17-11.6 260.8-13.75 263.42-15.9 268.22-15.95L268.22-15.95 277.02-15.95 277.02-11.85ZM276.32 0L276.27-16.85Q276.27-19.45 274.67-20.9 273.07-22.35 269.92-22.35L269.92-22.35Q268.02-22.35 266.05-21.65 264.07-20.95 262.07-19.6L262.07-19.6 259.72-23.3Q261.57-24.45 263.22-25.2 264.87-25.95 266.75-26.35 268.62-26.75 271.17-26.75L271.17-26.75Q276.32-26.75 279.1-24.28 281.87-21.8 281.92-17.45L281.92-17.45 281.97 0 276.32 0ZM309.37 0L309.37-15Q309.37-18.1 307.67-19.88 305.97-21.65 302.97-21.65L302.97-21.65Q299.42-21.6 297.4-19.15 295.37-16.7 295.37-13.05L295.37-13.05 293.77-13.05Q293.77-18 295.17-21 296.57-24 299.15-25.38 301.72-26.75 305.22-26.75L305.22-26.75Q308.32-26.75 310.55-25.5 312.77-24.25 313.95-21.98 315.12-19.7 315.12-16.5L315.12-16.5 315.12 0 309.37 0ZM289.67 0L289.67-26.55 295.42-26.55 295.42 0 289.67 0ZM322.82 0L322.82-26.55 328.52-26.55 328.52 0 322.82 0ZM325.67-37.5L325.67-37.5Q327.12-37.5 328.07-36.55 329.02-35.6 329.02-34.15L329.02-34.15Q329.02-32.75 328.07-31.78 327.12-30.8 325.67-30.8L325.67-30.8Q324.27-30.8 323.29-31.78 322.32-32.75 322.32-34.15L322.32-34.15Q322.32-35.6 323.29-36.55 324.27-37.5 325.67-37.5ZM354.27-24.15L352.17-20.1Q350.42-21.15 348.34-21.78 346.27-22.4 344.52-22.4L344.52-22.4Q342.82-22.4 341.72-21.75 340.62-21.1 340.62-19.6L340.62-19.6Q340.62-18.35 341.64-17.63 342.67-16.9 344.27-16.4 345.87-15.9 347.67-15.35 349.47-14.8 351.09-13.93 352.72-13.05 353.72-11.55 354.72-10.05 354.72-7.6L354.72-7.6Q354.72-4.9 353.29-3.18 351.87-1.45 349.54-0.63 347.22 0.2 344.52 0.2L344.52 0.2Q341.62 0.2 338.72-0.75 335.82-1.7 333.82-3.5L333.82-3.5 335.87-7.4Q337.62-5.85 340.12-4.98 342.62-4.1 344.77-4.1L344.77-4.1Q346.02-4.1 346.99-4.42 347.97-4.75 348.54-5.4 349.12-6.05 349.12-7.1L349.12-7.1Q349.12-8.5 348.12-9.3 347.12-10.1 345.52-10.63 343.92-11.15 342.12-11.68 340.32-12.2 338.74-13.05 337.17-13.9 336.17-15.35 335.17-16.8 335.17-19.2L335.17-19.2Q335.17-21.9 336.57-23.58 337.97-25.25 340.19-26.03 342.42-26.8 344.97-26.8L344.97-26.8Q347.47-26.8 349.97-26.1 352.47-25.4 354.27-24.15L354.27-24.15ZM362.66-15.2L378.91-15.2Q378.81-17.45 377.89-19.03 376.96-20.6 375.31-21.48 373.66-22.35 371.51-22.35L371.51-22.35Q369.11-22.35 367.34-21.25 365.56-20.15 364.56-18.18 363.56-16.2 363.56-13.55L363.56-13.55Q363.56-10.7 364.64-8.6 365.71-6.5 367.64-5.35 369.56-4.2 372.06-4.2L372.06-4.2Q376.51-4.2 379.56-7.35L379.56-7.35 382.61-4.3Q380.66-2.15 377.86-0.98 375.06 0.2 371.61 0.2L371.61 0.2Q367.51 0.2 364.46-1.5 361.41-3.2 359.71-6.23 358.01-9.25 358.01-13.25L358.01-13.25Q358.01-17.25 359.71-20.28 361.41-23.3 364.46-25 367.51-26.7 371.46-26.75L371.46-26.75Q376.16-26.75 379.01-24.83 381.86-22.9 383.06-19.4 384.26-15.9 383.91-11.1L383.91-11.1 362.66-11.1 362.66-15.2ZM400.06-26.8L400.06-26.8Q403.76-26.8 406.34-25.18 408.91-23.55 410.29-20.53 411.66-17.5 411.61-13.3L411.61-13.3Q411.66-9.1 410.31-6.05 408.96-3 406.39-1.38 403.81 0.25 400.16 0.25L400.16 0.25Q396.36 0.25 393.49-1.48 390.61-3.2 389.01-6.28 387.41-9.35 387.41-13.35L387.41-13.35Q387.41-17.35 389.01-20.38 390.61-23.4 393.46-25.1 396.31-26.8 400.06-26.8ZM401.36-22.15L401.36-22.15Q398.96-22.15 397.11-21 395.26-19.85 394.24-17.82 393.21-15.8 393.16-13.2L393.16-13.2Q393.21-10.6 394.24-8.6 395.26-6.6 397.11-5.45 398.96-4.3 401.36-4.3L401.36-4.3Q403.76-4.3 405.61-5.45 407.46-6.6 408.49-8.6 409.51-10.6 409.51-13.2L409.51-13.2Q409.51-15.85 408.49-17.85 407.46-19.85 405.61-21 403.76-22.15 401.36-22.15ZM409.51 0L409.51-37.1 415.26-37.1 415.26 0 409.51 0Z" opacity="1" transform="matrix(1,0,0,1,0,0)" fill="#398378" class="slogan-text-1" data-fill-palette-color="secondary" id="text-1"></path></svg></g></svg></g></svg></g></svg></g></svg></g><defs></defs></svg><rect width="395.5199999999999" height="163.71283010352815" fill="none" stroke="none" visibility="hidden"></rect></g></svg></g></svg>