<?xml version="1.0" standalone="no"?>
<!DOCTYPE svg PUBLIC "-//W3C//DTD SVG 20010904//EN"
 "http://www.w3.org/TR/2001/REC-SVG-20010904/DTD/svg10.dtd">
<svg version="1.0" xmlns="http://www.w3.org/2000/svg"
 width="3213.000000pt" height="1213.000000pt" viewBox="0 0 3213.000000 1213.000000"
 preserveAspectRatio="xMidYMid meet">

<g transform="translate(0.000000,1213.000000) scale(0.100000,-0.100000)"
fill="#000000" stroke="none">
<path d="M5795 11004 c-97 -9 -209 -41 -275 -77 -19 -11 -51 -28 -71 -39 -66
-34 -156 -125 -188 -190 -97 -193 36 -434 291 -529 62 -23 202 -49 271 -49
119 0 281 48 375 112 107 73 167 157 184 258 38 221 -96 427 -322 496 -47 14
-197 25 -265 18z"/>
<path d="M1802 10482 c-47 -44 -65 -94 -57 -158 12 -102 46 -119 260 -130 233
-11 321 -38 404 -123 60 -62 93 -130 115 -241 16 -79 17 -207 13 -1710 -2
-894 -7 -1656 -11 -1695 -4 -38 -11 -131 -16 -205 -23 -316 -38 -409 -97 -620
-8 -30 -21 -70 -29 -88 -8 -18 -14 -37 -14 -42 0 -21 -110 -232 -135 -260 -8
-9 -15 -20 -15 -23 0 -25 -161 -186 -249 -250 -76 -55 -323 -187 -350 -187 -6
0 -19 -4 -29 -9 -9 -5 -35 -17 -57 -27 -58 -25 -74 -50 -75 -114 0 -131 115
-219 236 -181 16 5 63 17 104 26 310 70 625 214 845 386 92 72 244 231 335
350 69 90 240 417 240 458 0 6 4 19 9 29 40 76 119 411 137 582 4 36 12 76 18
90 7 18 12 520 17 1680 3 910 9 1687 13 1725 4 39 12 88 18 110 5 22 12 51 14
65 22 107 145 220 271 251 21 5 119 16 218 23 99 8 192 18 207 24 29 12 52 55
64 118 7 38 -16 104 -48 136 -41 41 -46 41 -443 32 -483 -11 -1016 -11 -1500
0 l-380 9 -33 -31z"/>
<path d="M26265 9310 c-27 -4 -70 -11 -95 -15 -25 -3 -81 -12 -125 -20 -44 -8
-111 -19 -150 -25 -114 -17 -374 -58 -541 -86 -191 -31 -257 -34 -309 -13 -43
18 -85 30 -185 53 -62 15 -93 20 -295 48 -123 18 -679 17 -800 0 -144 -21
-296 -54 -405 -89 -87 -28 -81 -26 -225 -93 -231 -108 -388 -229 -518 -400
-57 -75 -80 -116 -123 -215 -33 -77 -59 -224 -57 -320 1 -78 16 -180 29 -207
8 -15 14 -35 14 -45 0 -16 79 -183 113 -238 53 -87 144 -177 255 -253 102 -69
302 -167 422 -205 24 -8 46 -19 47 -24 2 -5 -43 -15 -99 -22 -284 -35 -454
-104 -581 -236 -136 -142 -187 -263 -187 -445 0 -118 22 -211 66 -275 13 -20
24 -38 24 -41 0 -11 93 -90 133 -113 50 -29 190 -90 232 -102 17 -4 55 -15 85
-23 177 -51 461 -72 1285 -95 325 -9 545 -24 623 -41 23 -6 55 -10 72 -10 29
0 133 -21 205 -41 294 -84 416 -189 444 -383 15 -104 -9 -254 -57 -356 -22
-46 -92 -138 -130 -172 -84 -74 -181 -130 -327 -188 -149 -59 -352 -95 -645
-114 -222 -15 -515 -8 -660 15 -114 18 -234 41 -255 49 -11 4 -38 13 -60 20
-72 21 -199 88 -250 130 -59 49 -127 147 -145 210 -7 25 -15 79 -17 120 -9
142 41 246 178 374 43 40 79 79 79 87 -1 8 -8 23 -18 34 -21 25 -107 95 -116
95 -3 0 -23 10 -44 23 -90 55 -295 84 -416 57 -116 -26 -194 -54 -255 -94
-130 -84 -234 -226 -273 -375 -35 -134 -11 -341 53 -451 5 -8 16 -30 26 -49
19 -38 135 -159 196 -205 84 -63 273 -153 392 -186 161 -44 175 -48 295 -71
381 -72 1063 -85 1555 -30 278 32 636 114 815 189 19 8 46 19 60 24 215 86
388 197 531 338 140 139 199 238 254 425 25 86 26 336 1 420 -10 33 -24 72
-32 87 -8 14 -14 31 -14 38 0 21 -73 123 -130 180 -31 31 -90 79 -130 107 -74
49 -200 113 -224 113 -6 0 -16 4 -21 8 -6 5 -30 14 -55 21 -25 7 -63 19 -85
26 -22 7 -67 18 -100 25 -33 6 -80 16 -105 22 -55 13 -140 25 -245 37 -44 5
-96 12 -115 15 -69 12 -351 27 -670 36 -179 5 -444 14 -590 19 -146 6 -314 11
-375 12 -143 2 -280 23 -375 56 -180 64 -231 283 -93 403 125 110 391 150 995
150 348 0 470 8 628 40 312 64 613 194 795 344 185 152 304 310 353 466 40
126 43 145 43 270 0 71 -4 144 -9 162 -6 18 -18 60 -28 93 -26 89 -85 208
-136 276 -16 20 -28 41 -28 45 0 5 -34 45 -75 89 -41 44 -75 83 -75 88 0 9 98
9 300 -3 91 -5 263 -10 384 -12 l218 -3 29 35 c17 19 32 46 35 60 3 14 10 34
16 45 7 11 14 57 16 101 4 71 1 88 -19 128 -12 25 -30 53 -38 60 -21 19 -102
26 -166 16z m-1920 -284 c211 -42 390 -145 516 -294 24 -29 46 -58 48 -65 2
-6 10 -18 18 -25 7 -7 13 -20 13 -28 0 -8 4 -14 10 -14 5 0 13 -12 16 -27 4
-16 13 -37 20 -48 8 -11 14 -29 14 -40 0 -12 4 -25 9 -31 5 -5 16 -52 26 -104
26 -149 15 -394 -25 -535 -22 -75 -66 -169 -102 -216 -15 -20 -28 -41 -28 -46
0 -11 -111 -118 -166 -161 -42 -32 -180 -103 -225 -116 -154 -44 -186 -49
-345 -49 -168 0 -219 7 -344 50 -93 32 -117 44 -205 103 -94 64 -201 172 -241
244 -41 73 -84 171 -84 191 0 9 -4 25 -10 35 -15 28 -40 224 -40 314 1 97 25
275 39 289 6 6 11 20 11 32 0 11 21 62 47 112 72 144 209 276 358 347 99 46
138 60 235 81 79 18 349 18 435 1z"/>
<path d="M6055 9300 c-29 -8 -105 -26 -155 -36 -14 -3 -34 -9 -45 -14 -11 -5
-31 -11 -45 -14 -14 -2 -56 -13 -95 -24 -111 -30 -256 -65 -310 -73 -27 -5
-93 -15 -145 -24 -93 -15 -191 -29 -300 -44 -91 -12 -156 -59 -161 -116 -5
-68 1 -94 31 -123 25 -26 39 -31 102 -36 234 -21 295 -28 313 -36 11 -4 32
-11 48 -14 32 -8 96 -69 122 -117 10 -19 22 -63 28 -99 5 -36 11 -496 14
-1040 5 -1007 1 -1126 -35 -1215 -52 -129 -117 -160 -378 -180 -95 -7 -181
-18 -193 -24 -27 -15 -51 -72 -51 -121 0 -46 33 -97 80 -123 34 -19 43 -19
275 -7 231 12 1303 8 1560 -6 93 -5 103 -4 135 18 40 27 69 79 70 124 0 37
-22 95 -44 113 -8 7 -86 17 -193 25 -278 21 -345 56 -402 211 -13 34 -16 240
-21 1480 l-5 1440 -22 31 c-32 45 -107 63 -178 44z"/>
<path d="M8555 9298 c-38 -9 -97 -24 -190 -49 -22 -6 -51 -15 -64 -21 -14 -5
-43 -13 -65 -18 -23 -4 -68 -15 -101 -23 -163 -41 -328 -71 -595 -107 -47 -7
-104 -18 -127 -26 -87 -31 -120 -98 -88 -180 26 -69 34 -72 295 -95 140 -12
179 -22 230 -58 72 -51 94 -91 115 -214 23 -135 22 -3471 -1 -3621 -35 -231
-115 -289 -415 -305 -180 -10 -198 -17 -222 -90 -20 -62 -13 -101 28 -145 42
-46 88 -55 211 -45 140 11 1532 11 1642 0 104 -11 153 0 187 43 14 17 30 36
35 43 15 19 12 89 -7 127 -22 48 -51 56 -223 66 -182 10 -247 30 -322 98 -90
81 -97 137 -98 780 0 481 1 512 18 512 9 0 60 -19 112 -41 113 -49 298 -111
395 -133 193 -43 506 -64 710 -47 238 20 323 35 530 96 33 10 68 21 77 26 10
5 26 9 36 9 10 0 22 4 28 9 5 4 43 22 85 39 76 31 182 86 251 129 21 13 42 23
48 23 5 0 10 5 10 10 0 6 5 10 10 10 47 0 460 376 460 418 0 5 7 15 16 23 42
35 140 199 202 339 120 270 158 715 86 1002 -8 32 -14 67 -14 79 0 36 -43 163
-99 291 -12 26 -21 49 -21 52 0 10 -124 212 -145 236 -12 14 -29 37 -37 51
-67 107 -308 323 -458 408 -90 52 -230 118 -310 146 -41 15 -84 31 -95 35 -39
16 -244 60 -277 60 -18 0 -53 5 -77 11 -63 14 -424 14 -507 0 -95 -17 -205
-41 -229 -51 -11 -5 -29 -10 -40 -13 -34 -8 -198 -68 -245 -89 -117 -53 -240
-114 -286 -142 -27 -17 -58 -35 -67 -41 -9 -5 -48 -32 -86 -58 -39 -27 -75
-46 -81 -42 -6 4 -10 77 -10 199 0 227 -5 246 -77 277 -48 20 -75 22 -138 7z
m1423 -417 c20 -5 62 -14 92 -21 231 -49 438 -181 605 -386 204 -249 326 -656
312 -1034 -10 -259 -54 -496 -127 -685 -11 -30 -87 -184 -113 -231 -43 -76
-125 -179 -192 -239 -37 -33 -72 -65 -79 -70 -62 -56 -227 -147 -297 -165 -19
-4 -59 -16 -89 -25 -88 -26 -422 -33 -548 -10 -53 9 -106 20 -117 24 -54 21
-92 34 -115 39 -14 3 -45 17 -70 30 -25 14 -54 30 -65 36 -126 66 -342 275
-383 369 -9 21 -12 267 -12 1015 l0 987 58 46 c60 49 265 189 276 189 4 0 23
11 44 23 84 53 255 101 432 121 59 7 349 -3 388 -13z"/>
<path d="M18205 9298 c-38 -9 -97 -24 -190 -49 -22 -6 -51 -15 -64 -21 -14 -5
-43 -13 -65 -18 -23 -5 -59 -14 -81 -19 -112 -30 -363 -77 -545 -101 -211 -28
-250 -42 -281 -96 -22 -36 -23 -81 -4 -126 24 -58 44 -65 241 -83 98 -9 188
-20 199 -24 11 -5 34 -14 51 -20 37 -15 77 -51 108 -99 49 -77 51 -119 51
-1207 0 -1120 0 -1116 -61 -1210 -60 -92 -114 -112 -354 -130 -179 -14 -186
-15 -207 -40 -13 -14 -23 -35 -23 -45 0 -10 -4 -22 -10 -25 -31 -19 12 -114
71 -156 l32 -22 201 11 c259 15 1233 16 1487 1 108 -7 208 -9 222 -5 48 12
107 89 107 140 0 38 -30 105 -51 117 -11 5 -88 15 -172 20 -241 16 -317 44
-381 142 -61 92 -66 187 -66 1224 l0 884 39 52 c35 47 72 85 173 173 115 102
353 213 562 263 147 35 434 38 560 5 218 -55 326 -114 446 -241 104 -110 139
-188 160 -363 14 -114 8 -1753 -7 -1865 -12 -84 -31 -129 -74 -173 -51 -52
-154 -92 -238 -92 -64 0 -255 -18 -284 -26 -21 -6 -42 -46 -51 -94 -8 -47 27
-117 74 -148 35 -23 37 -24 195 -15 206 10 1381 11 1590 0 187 -10 205 -4 244
79 21 44 22 53 12 100 -18 81 -23 83 -227 98 -212 16 -265 30 -330 88 -41 38
-71 100 -83 178 -7 42 -11 385 -11 960 -1 495 -5 929 -10 970 -16 121 -26 171
-49 235 -12 33 -25 69 -28 80 -4 11 -19 42 -35 68 -15 26 -28 50 -28 53 0 12
-98 133 -147 182 -148 146 -358 260 -578 312 -224 53 -634 57 -870 9 -91 -19
-211 -53 -262 -75 -18 -8 -50 -21 -70 -30 -146 -60 -271 -140 -539 -341 -61
-46 -116 -83 -122 -83 -9 0 -12 67 -12 251 0 293 -4 308 -77 340 -48 20 -75
22 -138 7z"/>
<path d="M14110 9259 c-159 -8 -288 -23 -385 -44 -38 -8 -83 -18 -100 -21
-262 -52 -534 -196 -641 -339 -92 -122 -128 -295 -97 -457 11 -51 18 -71 45
-118 4 -8 12 -25 18 -37 25 -59 142 -176 207 -208 109 -53 163 -65 297 -65
145 0 243 39 334 132 49 51 49 52 -38 115 -120 88 -172 154 -196 246 -15 60
-15 78 -4 140 36 203 165 327 430 414 82 27 93 28 280 27 207 0 284 -10 415
-51 251 -78 404 -260 444 -530 16 -105 15 -720 -1 -729 -7 -5 -82 -11 -168
-15 -267 -13 -647 -42 -905 -68 -132 -14 -349 -51 -470 -80 -22 -6 -60 -15
-85 -20 -25 -6 -70 -18 -100 -26 -30 -9 -68 -20 -85 -25 -58 -15 -104 -34
-215 -89 -118 -58 -145 -75 -225 -139 -126 -101 -170 -154 -224 -267 -63 -131
-74 -187 -75 -375 0 -137 3 -170 17 -197 9 -18 17 -41 17 -51 0 -19 41 -103
88 -177 48 -77 212 -227 312 -284 56 -32 159 -80 186 -87 16 -4 34 -10 39 -14
25 -18 254 -60 387 -71 224 -19 501 12 738 80 65 19 125 38 145 45 11 4 34 13
50 18 71 25 233 112 303 163 72 52 232 200 232 215 0 12 37 50 49 50 6 0 11
-9 11 -19 0 -31 41 -131 76 -187 57 -91 150 -175 265 -238 182 -100 433 -151
632 -127 172 20 222 32 307 70 55 24 69 48 70 113 0 78 -25 98 -121 98 -204 0
-365 104 -418 270 -13 41 -28 85 -32 98 -5 13 -9 422 -10 910 0 968 -7 1131
-51 1247 -58 154 -103 228 -199 324 -78 77 -232 177 -344 222 -11 4 -36 14
-55 22 -104 42 -170 57 -415 96 -269 43 -465 53 -735 40z m1018 -1969 c4 -345
-17 -457 -121 -630 -89 -149 -288 -326 -448 -398 -120 -54 -133 -59 -259 -89
-99 -24 -402 -29 -488 -8 -189 46 -295 143 -343 314 -16 58 -19 93 -16 189 5
159 31 250 104 364 80 123 201 213 383 283 25 10 54 21 65 25 52 21 137 45
210 59 22 5 85 17 140 28 160 33 368 59 574 73 80 6 147 13 150 16 3 2 14 4
26 2 19 -3 20 -10 23 -228z"/>
<path d="M28710 9259 c-69 -4 -157 -12 -197 -18 -131 -19 -330 -73 -433 -117
-19 -9 -44 -19 -55 -23 -34 -14 -188 -92 -225 -114 -170 -101 -400 -306 -515
-457 -27 -36 -52 -67 -55 -70 -4 -3 -15 -21 -26 -40 -10 -19 -30 -51 -44 -70
-14 -19 -40 -66 -59 -105 -19 -38 -38 -78 -42 -87 -5 -10 -18 -46 -30 -80 -12
-35 -25 -67 -29 -73 -8 -10 -20 -56 -38 -145 -57 -270 -52 -498 16 -795 10
-44 66 -214 80 -242 5 -10 17 -36 27 -58 9 -22 21 -47 26 -55 5 -8 14 -26 20
-40 20 -47 123 -195 185 -265 114 -130 154 -167 279 -261 66 -51 247 -164 261
-164 2 0 41 -18 86 -39 94 -44 264 -102 353 -120 33 -7 76 -16 95 -21 70 -18
249 -39 424 -51 138 -9 213 -9 325 1 149 12 304 33 376 51 126 33 198 54 227
70 10 5 24 9 32 9 8 0 38 12 68 26 333 162 493 282 719 539 78 89 79 90 79
145 0 65 -24 98 -93 129 -95 44 -156 35 -203 -27 -31 -41 -44 -57 -130 -152
-162 -180 -324 -290 -522 -356 -254 -84 -616 -91 -942 -18 -36 8 -74 19 -85
23 -11 5 -51 21 -90 37 -167 67 -310 171 -421 306 -33 39 -65 76 -71 84 -7 7
-13 16 -13 20 0 4 -7 15 -15 24 -20 22 -105 195 -105 214 0 8 -4 17 -9 21 -5
3 -13 20 -17 38 -3 17 -12 45 -19 62 -34 79 -74 324 -77 475 l-3 125 1140 6
c1220 7 1216 7 1378 63 67 23 96 39 137 78 90 85 118 219 81 388 -32 147 -58
228 -106 335 -25 53 -82 154 -94 165 -4 3 -23 30 -44 62 -44 64 -205 224 -290
287 -59 43 -285 161 -309 161 -7 0 -42 11 -78 24 -211 76 -592 115 -930 95z
m340 -264 c135 -21 168 -29 230 -55 153 -65 301 -218 378 -392 69 -156 91
-332 55 -447 -31 -95 -101 -149 -252 -192 -62 -18 -112 -19 -848 -19 l-783 0
0 73 c0 39 5 90 11 112 6 22 14 60 18 85 8 52 28 114 47 152 8 14 14 31 14 37
0 10 61 140 83 176 37 61 99 137 153 191 56 56 182 154 198 154 4 0 23 11 44
23 79 50 185 83 327 102 134 17 211 17 325 0z"/>
<path d="M14745 2558 c-51 -28 -65 -50 -65 -103 0 -56 19 -84 73 -104 67 -26
159 -1 185 49 17 33 9 103 -14 126 -42 42 -133 58 -179 32z"/>
<path d="M26840 2557 c-41 -20 -62 -47 -67 -88 -16 -117 158 -177 245 -84 16
18 22 36 22 73 0 50 -13 69 -67 100 -28 15 -100 15 -133 -1z"/>
<path d="M15312 2552 c-10 -7 -12 -143 -10 -648 l3 -639 105 -3 c90 -2 107 0
117 15 18 24 19 1253 1 1271 -14 14 -195 17 -216 4z"/>
<path d="M30410 2548 c-1 -7 -1 -119 0 -248 0 -154 -4 -240 -11 -250 -8 -12
-12 -12 -16 -2 -28 71 -227 152 -373 152 -76 0 -202 -29 -267 -61 -67 -32
-164 -114 -187 -157 -41 -77 -55 -116 -64 -183 -18 -142 20 -286 100 -375 96
-106 258 -174 414 -174 142 0 269 44 349 119 19 18 40 29 46 26 6 -4 10 -28 9
-54 -5 -88 -14 -82 113 -79 l112 3 0 645 0 645 -112 3 c-87 2 -113 0 -113 -10z
m-232 -527 c9 -5 34 -16 54 -24 56 -25 114 -83 144 -144 21 -45 26 -70 26
-132 0 -131 -56 -218 -180 -277 -51 -25 -68 -28 -157 -28 -88 0 -107 4 -157
28 -68 32 -132 94 -159 152 -14 32 -19 65 -19 128 0 76 3 90 33 144 60 112
153 161 305 162 51 0 100 -4 110 -9z"/>
<path d="M13517 2473 c-4 -3 -7 -278 -7 -610 l0 -603 114 0 c80 0 117 4 122
12 4 7 8 117 9 245 1 128 5 236 9 240 4 5 152 10 329 13 l322 5 0 80 0 80
-319 3 c-179 1 -324 6 -331 12 -12 10 -14 335 -1 347 4 5 168 10 364 13 l357
5 0 80 0 80 -481 3 c-264 1 -484 -1 -487 -5z"/>
<path d="M16270 2189 c-162 -26 -261 -71 -345 -157 -228 -231 -135 -617 176
-733 216 -80 462 -57 651 60 32 20 58 42 58 49 0 18 -91 101 -111 102 -8 0
-33 -13 -55 -28 -71 -52 -128 -67 -249 -67 -128 0 -192 18 -257 74 -50 42 -90
106 -86 134 l3 22 407 3 406 2 7 31 c11 47 -4 178 -26 238 -29 78 -81 144
-149 189 -71 48 -135 68 -255 82 -100 11 -98 11 -175 -1z m232 -172 c84 -30
152 -111 160 -187 l3 -35 -310 0 -310 0 3 35 c1 19 9 41 17 50 8 9 15 21 15
26 0 30 114 107 183 125 45 11 194 3 239 -14z"/>
<path d="M17335 2185 c-83 -15 -129 -31 -170 -58 -127 -87 -152 -241 -54 -343
19 -20 43 -40 54 -45 11 -5 27 -13 35 -17 42 -24 61 -32 78 -32 10 0 22 -4 28
-9 8 -8 36 -16 144 -40 55 -12 143 -53 162 -76 10 -11 17 -36 18 -56 0 -51
-38 -84 -117 -99 -59 -12 -82 -11 -188 8 -56 10 -211 68 -220 83 -17 26 -35 8
-92 -94 -16 -28 -4 -41 61 -72 242 -114 546 -109 704 12 59 45 83 95 84 177 1
101 -26 150 -115 204 -53 34 -99 49 -267 92 -140 35 -200 72 -200 121 0 75 61
104 203 97 50 -3 103 -10 117 -16 50 -20 161 -54 163 -51 84 124 81 118 63
138 -34 38 -254 92 -366 90 -30 -1 -86 -7 -125 -14z"/>
<path d="M19195 2188 c-74 -14 -188 -73 -230 -120 -21 -22 -41 -36 -45 -32 -5
5 -10 41 -12 79 l-3 70 -104 3 c-57 1 -108 -1 -113 -6 -10 -10 -12 -898 -3
-913 4 -5 55 -9 115 -9 l108 0 4 268 c3 252 4 269 25 308 55 103 176 174 298
174 39 0 54 4 59 16 10 26 7 134 -4 155 -12 20 -19 21 -95 7z"/>
<path d="M19845 2185 c-117 -18 -203 -50 -275 -104 -210 -157 -241 -474 -64
-655 202 -208 586 -234 852 -58 28 19 52 38 52 42 0 9 -109 100 -119 100 -4 0
-27 -13 -52 -28 -88 -56 -134 -67 -264 -67 -116 1 -122 2 -181 33 -70 37 -103
69 -134 130 -39 75 -60 71 397 74 l408 3 0 107 c-1 59 -6 117 -11 130 -90 202
-184 270 -409 297 -102 12 -93 13 -200 -4z m267 -175 c25 -11 59 -35 77 -52
36 -35 73 -113 69 -143 -3 -20 -9 -20 -313 -20 l-310 0 3 29 c4 37 43 105 77
135 36 30 101 63 144 72 64 14 204 3 253 -21z"/>
<path d="M21070 2185 c-123 -21 -194 -49 -275 -110 -203 -151 -237 -430 -77
-631 34 -43 125 -107 196 -139 61 -27 204 -55 281 -55 128 0 319 56 396 116
47 37 111 109 132 149 49 92 65 233 38 321 -43 135 -118 223 -251 292 -61 32
-90 41 -199 57 -108 17 -137 17 -241 0z m244 -170 c60 -18 102 -44 141 -87 41
-45 54 -71 72 -137 12 -46 12 -66 2 -116 -22 -110 -72 -179 -162 -223 -60 -30
-72 -32 -170 -32 -79 0 -115 4 -145 18 -72 32 -113 66 -150 127 -35 58 -37 63
-37 155 0 82 3 102 25 144 31 62 103 123 172 147 66 22 186 24 252 4z"/>
<path d="M22545 2185 c-101 -19 -152 -44 -214 -102 -24 -24 -48 -43 -53 -43
-4 0 -8 29 -8 65 0 53 -3 66 -19 75 -28 15 -194 13 -212 -2 -12 -11 -14 -82
-11 -465 l2 -453 109 0 c76 0 112 4 119 13 7 8 12 110 14 277 l3 265 30 45
c61 89 169 147 285 153 l55 2 3 84 c2 61 -1 87 -10 92 -15 10 -13 10 -93 -6z"/>
<path d="M23124 2186 c-93 -16 -193 -66 -258 -131 -89 -87 -118 -164 -118
-311 1 -95 3 -107 35 -176 71 -150 191 -231 383 -259 77 -10 101 -10 179 5 49
9 94 21 99 26 6 6 16 10 24 10 7 0 43 21 79 47 l66 47 -5 -85 c-7 -144 -64
-220 -195 -263 -40 -13 -78 -16 -170 -13 -132 4 -161 10 -253 55 -77 38 -88
39 -99 10 -5 -13 -18 -32 -29 -44 -10 -11 -24 -30 -31 -41 -10 -19 -6 -24 39
-52 28 -17 58 -31 68 -31 10 0 22 -4 28 -8 5 -5 38 -17 74 -28 54 -16 95 -19
240 -18 163 0 180 2 253 27 131 45 205 101 261 197 53 92 56 121 56 595 0 385
-2 434 -16 439 -20 8 -188 8 -208 0 -12 -5 -16 -21 -16 -66 l0 -60 -52 38
c-70 50 -129 75 -213 90 -84 15 -127 15 -221 0z m301 -167 c52 -23 135 -89
135 -108 0 -5 6 -14 13 -20 22 -18 40 -117 32 -180 -16 -133 -105 -222 -252
-250 -132 -25 -262 26 -337 132 -40 58 -41 58 -40 150 0 75 4 99 22 132 42 78
113 135 195 156 45 12 196 4 232 -12z"/>
<path d="M24495 2188 c-86 -12 -212 -50 -282 -86 -29 -14 -53 -28 -53 -31 0
-2 18 -28 40 -58 44 -57 70 -66 113 -39 12 8 51 24 87 37 55 20 83 24 180 23
99 0 122 -4 163 -23 56 -27 96 -87 100 -147 l2 -39 -225 -6 c-286 -8 -362 -26
-450 -105 -58 -53 -83 -114 -77 -189 10 -123 83 -201 232 -250 148 -48 351
-23 473 58 46 31 49 29 54 -33 l3 -35 113 -3 112 -3 0 331 c0 277 -3 339 -16
380 -39 119 -161 198 -336 219 -108 12 -132 12 -233 -1z m353 -563 c4 -42 -24
-110 -55 -137 -10 -8 -44 -28 -76 -43 -47 -22 -76 -29 -150 -33 -112 -5 -164
7 -212 52 -31 29 -35 39 -35 83 0 38 5 54 23 71 53 50 68 52 292 50 l210 -3 3
-40z"/>
<path d="M25933 2185 c-88 -14 -184 -61 -240 -116 -49 -47 -51 -45 -55 51 l-3
65 -110 0 -110 0 -3 -463 -2 -463 112 3 113 3 5 260 c6 301 13 331 95 409 58
54 120 76 222 76 105 0 165 -20 208 -69 55 -61 55 -62 55 -370 0 -157 4 -292
8 -299 6 -9 37 -12 118 -10 l109 3 3 338 c2 301 0 343 -15 375 -18 40 -68 110
-93 129 -39 31 -129 68 -193 79 -86 15 -129 15 -224 -1z"/>
<path d="M27594 2186 c-162 -23 -278 -111 -285 -216 -6 -105 -1 -125 42 -174
42 -47 141 -106 178 -106 11 0 22 -4 25 -9 3 -5 20 -11 38 -13 124 -18 255
-73 282 -119 24 -40 20 -61 -16 -96 -69 -65 -197 -67 -378 -6 -41 14 -87 34
-102 44 -14 11 -30 19 -36 19 -10 0 -62 -63 -62 -76 0 -4 -8 -16 -17 -26 -17
-19 -16 -20 7 -39 30 -22 111 -62 162 -78 56 -18 198 -41 253 -41 58 0 194 23
245 42 80 30 170 107 170 148 0 10 5 22 10 25 14 8 13 94 -2 136 -35 104 -122
154 -388 224 -98 25 -172 66 -181 97 -10 39 0 71 29 93 24 18 42 20 150 19 80
0 126 -4 134 -12 7 -7 20 -12 29 -12 10 0 39 -9 65 -20 26 -11 54 -18 63 -15
15 5 81 107 81 126 0 10 -66 43 -120 60 -44 14 -214 38 -260 37 -19 0 -71 -5
-116 -12z"/>
<path d="M28703 2186 c-39 -6 -75 -14 -79 -18 -4 -5 -16 -8 -26 -8 -26 0 -134
-56 -180 -93 -41 -33 -118 -129 -118 -147 0 -6 -8 -23 -17 -37 -15 -22 -18
-50 -18 -153 0 -124 0 -126 37 -201 68 -140 203 -232 386 -263 114 -20 164
-20 272 -1 86 15 113 23 185 55 48 22 125 77 125 89 0 13 -68 76 -97 92 -20
11 -28 9 -51 -7 -15 -11 -54 -33 -87 -49 -56 -27 -69 -29 -185 -29 -116 -1
-129 1 -180 26 -62 30 -118 84 -148 142 -37 69 -55 66 399 66 l409 0 6 26 c9
37 -13 215 -31 250 -8 16 -15 33 -15 37 0 9 -47 74 -70 97 -67 68 -153 106
-280 126 -98 15 -137 15 -237 0z m275 -176 c87 -42 142 -112 142 -180 l0 -40
-307 2 c-348 3 -331 -1 -294 82 27 58 105 125 173 148 72 25 224 18 286 -12z"/>
<path d="M14708 2179 c-17 -9 -18 -41 -18 -448 0 -336 3 -441 13 -454 10 -15
27 -17 117 -15 l105 3 0 460 0 460 -100 2 c-56 2 -108 -2 -117 -8z"/>
<path d="M26807 2181 c-17 -6 -18 -31 -17 -455 0 -247 3 -453 6 -457 7 -12
211 -11 219 0 3 5 5 211 6 457 0 355 -3 449 -13 456 -16 9 -176 9 -201 -1z"/>
</g>
</svg>
